<svg xmlns="http://www.w3.org/2000/svg" xmlns:svg="http://www.w3.org/2000/svg" xmlns:xlink="http://www.w3.org/1999/xlink" id="svg2" width="300" height="300" version="1.0"><metadata id="metadata66"/><defs id="defs1"><linearGradient id="lg1" x1="277.491" x2="286.712" y1="794.375" y2="776.557" gradientTransform="matrix(0.747426,0,0,1.337925,0.25,132)" gradientUnits="userSpaceOnUse" spreadMethod="pad" xlink:href="#lg2"><stop id="stop3044" offset="0" style="stop-color:#d83c36;stop-opacity:1"/><stop id="stop3046" offset="1" style="stop-color:#620101;stop-opacity:1"/></linearGradient><linearGradient id="lg2" x1="277.491" x2="286.712" y1="794.375" y2="776.557" gradientTransform="matrix(0.747426,0,0,1.337925,0.25,132)" gradientUnits="userSpaceOnUse" spreadMethod="pad" xlink:href="#G3"><stop id="stop2978" offset="0" style="stop-color:#ff0b00;stop-opacity:1"/><stop id="stop2980" offset="1" style="stop-color:#a40000;stop-opacity:1"/></linearGradient><linearGradient id="G0" x1="296.137" x2="230.013" y1="768.038" y2="833.855" gradientTransform="matrix(0.880685,0,0,1.13548,0,280)" gradientUnits="userSpaceOnUse"><stop id="stop9" offset="0" style="stop-color:#282323;stop-opacity:1"/><stop id="stop11" offset="1" style="stop-color:#655e5e;stop-opacity:1"/></linearGradient><linearGradient id="G1" x1="433.228" x2="504.901" y1="408.781" y2="408.781" gradientTransform="matrix(0.448461,0,0,2.229848,0,280)" gradientUnits="userSpaceOnUse"><stop id="stop14" offset="0" style="stop-color:#e4e4d2;stop-opacity:.6"/><stop id="stop16" offset="1" style="stop-color:#fff;stop-opacity:0"/></linearGradient><linearGradient id="G2" x1="121.738" x2="116.152" y1="1726.721" y2="1719.031" gradientTransform="matrix(1.958518,0,0,0.51059,0,280)" gradientUnits="userSpaceOnUse"><stop id="stop19" offset="0" style="stop-color:#ebebe2;stop-opacity:1"/><stop id="stop21" offset="1" style="stop-color:#bcbc8e;stop-opacity:1"/></linearGradient><linearGradient id="G3" x1="241.408" x2="243.662" y1="998.696" y2="1051.365" gradientTransform="matrix(0.991342,0,0,1.008734,0,140)" xlink:href="#G1"/><radialGradient id="G7" cx="169.881" cy="1794.88" r="44.525" fx="169.881" fy="1794.88" gradientTransform="scale(1.459845,0.685004)" gradientUnits="userSpaceOnUse"><stop id="stop32" offset="0" style="stop-color:#000;stop-opacity:.39215687"/><stop id="stop34" offset="1" style="stop-color:#000;stop-opacity:0"/></radialGradient><linearGradient id="G9" x1="205.993" x2="211.853" y1="1137.605" y2="1082.942" gradientTransform="matrix(1.175962,0,0,0.850368,0,280)" gradientUnits="userSpaceOnUse" spreadMethod="reflect"><stop id="stop37" offset="0" style="stop-color:#c15507;stop-opacity:1"/><stop id="stop39" offset="1" style="stop-color:#753504;stop-opacity:1"/></linearGradient><linearGradient id="linearGradient3683" x1="296.137" x2="230.013" y1="768.038" y2="833.855" gradientTransform="matrix(0.880685,0,0,1.13548,0,280)" gradientUnits="userSpaceOnUse" xlink:href="#G0"/><linearGradient id="linearGradient3685" x1="433.228" x2="504.901" y1="408.781" y2="408.781" gradientTransform="matrix(0.448461,0,0,2.229848,0,280)" gradientUnits="userSpaceOnUse" xlink:href="#G1"/><linearGradient id="linearGradient3689" x1="241.408" x2="243.662" y1="998.696" y2="1051.365" gradientTransform="matrix(0.991342,0,0,1.008734,0,140)" spreadMethod="pad" xlink:href="#G1"/><linearGradient id="linearGradient3691" x1="277.491" x2="286.712" y1="794.375" y2="776.557" gradientTransform="matrix(0.747426,0,0,1.337925,0.25,132)" gradientUnits="userSpaceOnUse" spreadMethod="pad" xlink:href="#lg1"/><linearGradient id="linearGradient3693" x1="250.287" x2="252.102" y1="868.116" y2="885.647" gradientTransform="matrix(0.834058,0,0,1.198958,0,132)" xlink:href="#G1"/><radialGradient id="radialGradient3697" cx="169.881" cy="1794.88" r="44.525" fx="169.881" fy="1794.88" gradientTransform="scale(1.459845,0.685004)" gradientUnits="userSpaceOnUse" xlink:href="#G7"/><linearGradient id="linearGradient3699" x1="205.993" x2="211.853" y1="1137.605" y2="1082.942" gradientTransform="matrix(1.175962,0,0,0.850368,0,280)" gradientUnits="userSpaceOnUse" spreadMethod="reflect" xlink:href="#G9"/><linearGradient id="linearGradient3703" x1="143.156" x2="164.792" y1="1700.754" y2="1776.309" gradientTransform="matrix(1.615039,0,0,0.61918,0,140)" xlink:href="#G1"/><linearGradient id="linearGradient3705" x1="191.071" x2="191.071" y1="1478.189" y2="1444.941" gradientTransform="matrix(1.362229,0,0,0.734091,0,140)" xlink:href="#lg1"/><linearGradient id="linearGradient3709" x1="175.508" x2="167.519" y1="1674.547" y2="1666.985" gradientTransform="matrix(1.514725,0,0,0.660186,0,140)" spreadMethod="pad" xlink:href="#G1"/><linearGradient id="linearGradient3711" x1="140.183" x2="147.687" y1="1674.473" y2="1669.343" gradientTransform="matrix(1.514725,0,0,0.660186,0,140)" xlink:href="#G1"/><linearGradient id="linearGradient3713" x1="223.663" x2="227.172" y1="1000.863" y2="985.212" gradientTransform="matrix(0.907281,0,0,1.102195,0,140)" xlink:href="#lg1"/><linearGradient id="linearGradient3715" x1="211.964" x2="212.007" y1="1048.091" y2="1068.409" gradientTransform="matrix(0.965146,0,0,1.036113,0,140)" xlink:href="#G1"/><linearGradient id="linearGradient3717" x1="196.648" x2="182.967" y1="1437.268" y2="1493.874" gradientTransform="matrix(1.362229,0,0,0.734091,0,140)" xlink:href="#G1"/><linearGradient id="linearGradient3719" x1="122.264" x2="116.049" y1="36.737" y2="10.674" gradientUnits="userSpaceOnUse" spreadMethod="pad" xlink:href="#G1"/><linearGradient id="linearGradient3754" x1="126.136" x2="115.168" y1="1985.535" y2="1976.435" gradientTransform="matrix(1.937868,0,0,0.516031,0,140)" xlink:href="#G1"/><linearGradient id="linearGradient3758" x1="140.257" x2="157.334" y1="1696.161" y2="1634.547" gradientTransform="matrix(1.514725,0,0,0.660186,0,140)" xlink:href="#G2"/><linearGradient id="linearGradient4256" x1="121.738" x2="116.152" y1="1726.721" y2="1719.031" gradientTransform="matrix(1.958518,0,0,0.51059,0,280)" gradientUnits="userSpaceOnUse" xlink:href="#G2"/><linearGradient id="linearGradient4258" x1="131.919" x2="189.136" y1="1448.467" y2="1448.467" gradientTransform="matrix(1.514725,0,0,0.660186,0,280)" xlink:href="#G2"/></defs><g id="g4285"><rect id="rect2874" width="300" height="300" x="0" y="0" rx="2.042" ry="1.461" style="fill:none;fill-opacity:1;stroke:none"/><g id="g3658" transform="translate(12.27232,17.785897)"><g id="g52" transform="translate(-5.5494448,-22.868107)"><g id="g54" transform="matrix(2.396429,0,0,2.396429,-440.3068,-2735.148)"><path id="p0" d="m 202.4685,1162.0158 46.06299,-10.63 14.17323,3.5433 -3.54331,56.6929 -42.51968,17.7166 -14.17323,-10.6299 0,-56.6929 z" style="fill:url(#linearGradient3683);fill-opacity:1;stroke:#000;stroke-width:1"/><path id="path57" d="m 203.92858,1163.2143 -1e-5,54.2857 12.85714,9.6429 1e-5,-58.9286 c -6.58381,-0.076 -11.39985,-3.1566 -12.85714,-5 z" style="opacity:.75;fill:url(#linearGradient3685)"/><path id="p2" d="m 207.05602,1162.3463 c 1.91331,1.9404 5.06405,3.7039 9.45223,3.8765 l 42.76907,-11.6889 -9.21597,-2.217 -43.00533,10.0294 z" style="fill:url(#linearGradient4256);stroke:#000;stroke-opacity:.19607843"/><path id="path60" d="m 218.75,1168.25 41.25,-11.5 -0.75,24.5 c -1.41667,26.8333 -31.08333,-18.8333 -40.5,16.25 l 0,-29.25 z" style="opacity:.74600004;fill:url(#linearGradient3689);fill-opacity:1"/><path id="p4" d="m 202.65931,1172.2908 c 3.53554,3.4177 8.66207,5.9514 13.96537,5.8336 l -0.17678,20.1526 c -4.65512,-0.4714 -11.07801,-2.8873 -13.61181,-6.7175 l -0.17678,-19.2687 z" style="fill:url(#linearGradient3691);fill-opacity:1;stroke:#000;stroke-opacity:.39215686"/><path id="path63" d="m 203.85355,1175.1036 c 2.16667,2.5 7.56817,4.7045 11.23484,4.4545 0,3.6666 0.6594,8.9082 -1.13128,10.1135 -3.39432,2.2845 -5.29029,-10.3055 -9.95711,-3.9216 -0.16667,-3.4167 0.0202,-7.2297 -0.14645,-10.6464 z" style="fill:url(#linearGradient3693)"/><use id="p6" width="308.901" height="274.267" x="0" y="0" xlink:href="#p2" style="fill:url(#linearGradient3754);stroke-opacity:.19607843"/></g><g id="g66" transform="matrix(2.396429,0,0,2.396429,-440.3068,-2735.148)"><path id="p7" d="m 313,1229.5 c 0,16.8447 -29.10149,30.5 -65,30.5 -35.89851,0 -65,-13.6553 -65,-30.5 0,-16.8447 29.10149,-30.5 65,-30.5 35.89851,0 65,13.6553 65,30.5 z" transform="matrix(0.576778,-0.124421,-0.02666374,0.738383,147.4919,344.5136)" style="fill:url(#radialGradient3697)"/></g><g id="g71" transform="matrix(2.396429,0,0,2.396429,-440.3068,-2735.148)"><path id="p9" d="m 199.42519,1218.2087 53.14961,-21.2599 35.43307,21.2599 0,14.1732 -53.14961,28.3465 -35.43307,-28.3465 0,-14.1732 z" style="fill:url(#linearGradient3699);fill-opacity:1;stroke:#000;stroke-width:1"/><path id="p10" d="m 287.32142,1219.6429 -52.5,26.7857 -34.64285,-25.5357 -0.35715,8.9285 35.17858,28.0357 52,-27.5 0.32142,-10.7142 z" style="fill:url(#linearGradient4258);stroke:#000;stroke-width:2;stroke-opacity:.19607843"/><path id="path75" d="m 203.64675,1218.8282 48.79038,-20.1526 32.17335,19.799 c -6.24611,3.182 -15.54114,7.6317 -21.2132,8.4852 -25.43527,3.8277 -17.32413,-13.0813 -59.75053,-8.1316 z" style="opacity:.5;fill:url(#linearGradient3703)"/><path id="p12" d="m 252.25,1200.75 -15.5,6.5 28.25,17.25 15,-6.5 -27.75,-17.25 z" style="fill:url(#linearGradient3705);fill-opacity:1;stroke:#000;stroke-opacity:.39215686"/><use id="p13" width="308.901" height="274.267" x="0" y="0" xlink:href="#p10" style="fill:url(#linearGradient3758);stroke:#000;stroke-opacity:.19607843"/><path id="path79" d="m 287.32142,1219.6429 -52.5,26.7857 0.17858,11.4285 52,-27.5 0.32142,-10.7142 z" style="fill:url(#linearGradient3709);fill-opacity:1"/><path id="path81" d="m 234.82142,1246.4286 -34.64285,-25.5357 -0.35715,8.9285 35.17858,28.0357 -0.17858,-11.4285 z" style="fill:url(#linearGradient3711)"/><path id="p16" d="m 203.4845,1227.1864 c 3.35687,2.7751 6.71374,5.5503 10.07061,8.3254 -4.22441,1.4055 -4.94882,16.8111 -14.17323,17.7166 1.5689,-5.2717 1.6378,-8.2933 1.7067,-12.315 -2.43111,1.4783 -6.36221,2.7067 -8.79331,1.685 6.72974,-4.8873 7.45949,-14.5247 11.18923,-15.412 z" style="fill:url(#linearGradient3713);fill-opacity:1;stroke:#000"/><path id="path84" d="m 202.49142,1229.5508 c -0.94292,0.6387 -2.08557,4.4212 -3.44086,7.1318 3.18198,-3.1231 4.34944,7.152 7.42462,6.8942 1.82177,-0.1527 2.91988,-4.3316 3.84619,-6.8084 0.85768,-2.2933 -6.36252,-8.2116 -7.82995,-7.2176 z" style="fill:url(#linearGradient3715)"/><path id="path86" d="m 252.125,1202.25 -12.5,5.125 c 11.95833,-3.6667 18.75443,5.9428 25.625,11.5 4.75781,3.8483 14.83333,-0.9583 7.875,-4.125 l -21,-12.5 z" style="fill:url(#linearGradient3717)"/></g></g><path id="rect3089" d="M 50.338806,27.464273 C 84.307231,19.542398 118.80149,11.497889 153.35516,3.4395269 c 8.0992,1.928039 12.20048,2.9146461 22.12828,5.3028857 C 141.37331,18.064803 107.33023,27.539061 72.602125,36.736968 69.123686,36.21744 62.587848,36.01836 57.881914,32.949728 53.17598,29.881095 52.874567,29.489268 50.338806,27.464273 z" style="fill:url(#linearGradient3719);fill-opacity:1;fill-rule:nonzero;stroke:none"/></g></g></svg>