<svg xmlns="http://www.w3.org/2000/svg" xmlns:svg="http://www.w3.org/2000/svg" id="svg2" width="1400" height="2700" version="1.1"><metadata id="metadata7"/><g id="layer1" transform="translate(0,1647.6378)"><g id="g3727" transform="translate(-158.49648,-1728.2031)"><path id="path2816" d="m 483.57144,257.71933 c 0,59.37061 -48.12939,107.5 -107.5,107.5 -59.37061,0 -107.5,-48.12939 -107.5,-107.5 0,-59.37061 48.12939,-107.5 107.5,-107.5 59.37061,0 107.5,48.12939 107.5,107.5 z" transform="matrix(1.1901163,0,0,1.1901163,-136.76222,-68.734586)" style="fill:none;stroke:#000;stroke-width:.84025401;stroke-linecap:round;stroke-linejoin:round;stroke-miterlimit:10;stroke-opacity:1;stroke-dasharray:none"/><g id="g3715" transform="translate(-143.47918,1.333496)"><path style="fill:none;stroke:#000;stroke-width:.84025401;stroke-linecap:round;stroke-linejoin:round;stroke-miterlimit:10;stroke-opacity:1;stroke-dasharray:none" id="path2816-9" d="m 483.57144,257.71933 c 0,28.51077 -11.32586,55.85382 -31.48602,76.01398 l -76.01398,-76.01398 z" transform="matrix(1.1901163,0,0,1.1901163,6.7169587,-70.068082)"/><path style="fill:none;stroke:#000;stroke-width:.84025401;stroke-linecap:round;stroke-linejoin:round;stroke-miterlimit:10;stroke-opacity:1;stroke-dasharray:none" id="path2816-9-0" d="m 452.08542,333.73331 c -20.16016,20.16016 -47.5032,31.48602 -76.01398,31.48602 l 0,-107.5 z" transform="matrix(1.1901163,0,0,1.1901163,6.7169587,-70.068082)"/></g><g id="g3723" transform="translate(160.40919,-57.314118)"><path style="fill:none;stroke:#000;stroke-width:.84025401;stroke-linecap:round;stroke-linejoin:round;stroke-miterlimit:10;stroke-opacity:1;stroke-dasharray:none" id="path2816-9-4" d="m 483.57144,257.71933 c 0,28.51077 -11.32586,55.85382 -31.48602,76.01398 l -76.01398,-76.01398 z" transform="matrix(-1.1901163,0,0,1.1901163,597.9661,-11.420468)"/><path style="fill:none;stroke:#000;stroke-width:.84025401;stroke-linecap:round;stroke-linejoin:round;stroke-miterlimit:10;stroke-opacity:1;stroke-dasharray:none" id="path2816-9-0-4" d="m 452.08542,333.73331 c -20.16016,20.16016 -47.5032,31.48602 -76.01398,31.48602 l 0,-107.5 z" transform="matrix(-1.1901163,0,0,1.1901163,597.9661,-11.420468)"/></g><g id="g3711" transform="translate(-142.05061,32.443015)"><path style="fill:none;stroke:#000;stroke-width:.84025401;stroke-linecap:round;stroke-linejoin:round;stroke-miterlimit:10;stroke-opacity:1;stroke-dasharray:none" id="path2816-9-9" d="m 483.57144,257.71933 c 0,28.51077 -11.32586,55.85382 -31.48602,76.01398 l -76.01398,-76.01398 z" transform="matrix(1.1901163,0,0,-1.1901163,5.2883873,512.25435)"/><path style="fill:none;stroke:#000;stroke-width:.84025401;stroke-linecap:round;stroke-linejoin:round;stroke-miterlimit:10;stroke-opacity:1;stroke-dasharray:none" id="path2816-9-0-3" d="m 452.08542,333.73331 c -20.16016,20.16016 -47.5032,31.48602 -76.01398,31.48602 l 0,-107.5 z" transform="matrix(1.1901163,0,0,-1.1901163,5.2883873,512.25435)"/></g><g id="g3719" transform="translate(139.69491,39.662055)"><path style="fill:none;stroke:#000;stroke-width:.84025401;stroke-linecap:round;stroke-linejoin:round;stroke-miterlimit:10;stroke-opacity:1;stroke-dasharray:none" id="path2816-9-4-1" d="m 483.57144,257.71933 c 0,28.51077 -11.32586,55.85382 -31.48602,76.01398 l -76.01398,-76.01398 z" transform="matrix(-1.1901163,0,0,-1.1901163,618.68038,505.03531)"/><path style="fill:none;stroke:#000;stroke-width:.84025401;stroke-linecap:round;stroke-linejoin:round;stroke-miterlimit:10;stroke-opacity:1;stroke-dasharray:none" id="path2816-9-0-4-4" d="m 452.08542,333.73331 c -20.16016,20.16016 -47.5032,31.48602 -76.01398,31.48602 l 0,-107.5 z" transform="matrix(-1.1901163,0,0,-1.1901163,618.68038,505.03531)"/></g></g><g id="g4311" transform="translate(245.56454,-2117.1118)"><path id="path2816-99" d="m 483.57144,257.71933 c 0,59.37061 -48.12939,107.5 -107.5,107.5 -59.37061,0 -107.5,-48.12939 -107.5,-107.5 0,-59.37061 48.12939,-107.5 107.5,-107.5 59.37061,0 107.5,48.12939 107.5,107.5 z" transform="matrix(1.1901163,0,0,1.1901163,-202.56875,339.15327)" style="fill:none;stroke:#000;stroke-width:.84025401;stroke-linecap:round;stroke-linejoin:round;stroke-miterlimit:10;stroke-opacity:1;stroke-dasharray:none"/><path id="path2816-9-98" d="m 483.57144,257.71933 c 0,28.51077 -11.32586,55.85382 -31.48602,76.01398 l -76.01398,-76.01398 z" transform="matrix(1.1901163,0,0,1.1901163,-202.56875,339.15328)" style="fill:#2cb52a;fill-opacity:1;stroke:#000;stroke-width:.84025401;stroke-linecap:round;stroke-linejoin:round;stroke-miterlimit:10;stroke-opacity:1;stroke-dasharray:none"/><path id="path2816-9-0-40" d="m 452.08542,333.73331 c -20.16016,20.16016 -47.5032,31.48602 -76.01398,31.48602 l 0,-107.5 z" transform="matrix(1.1901163,0,0,1.1901163,-202.56875,339.15328)" style="fill:#f9d503;fill-opacity:1;stroke:#000;stroke-width:.84025401;stroke-linecap:round;stroke-linejoin:round;stroke-miterlimit:10;stroke-opacity:1;stroke-dasharray:none"/><path id="path2816-9-4-0" d="m 483.57144,257.71933 c 0,28.51077 -11.32586,55.85382 -31.48602,76.01398 l -76.01398,-76.01398 z" transform="matrix(-1.1901163,0,0,1.1901163,692.56876,339.15327)" style="fill:#d21dc2;fill-opacity:1;stroke:#000;stroke-width:.84025401;stroke-linecap:round;stroke-linejoin:round;stroke-miterlimit:10;stroke-opacity:1;stroke-dasharray:none"/><path id="path2816-9-0-4-5" d="m 452.08542,333.73331 c -20.16016,20.16016 -47.5032,31.48602 -76.01398,31.48602 l 0,-107.5 z" transform="matrix(-1.1901163,0,0,1.1901163,692.56876,339.15327)" style="fill:#1dc5d1;fill-opacity:1;stroke:#000;stroke-width:.84025401;stroke-linecap:round;stroke-linejoin:round;stroke-miterlimit:10;stroke-opacity:1;stroke-dasharray:none"/><path id="path2816-9-9-0" d="m 483.57144,257.71933 c 0,28.51077 -11.32586,55.85382 -31.48602,76.01398 l -76.01398,-76.01398 z" transform="matrix(1.1901163,0,0,-1.1901163,-202.56875,952.58522)" style="fill:#e61322;fill-opacity:1;stroke:#000;stroke-width:.84025401;stroke-linecap:round;stroke-linejoin:round;stroke-miterlimit:10;stroke-opacity:1;stroke-dasharray:none"/><path id="path2816-9-0-3-9" d="m 452.08542,333.73331 c -20.16016,20.16016 -47.5032,31.48602 -76.01398,31.48602 l 0,-107.5 z" transform="matrix(1.1901163,0,0,-1.1901163,-202.56875,952.58522)" style="fill:#345afd;fill-opacity:1;stroke:#000;stroke-width:.84025401;stroke-linecap:round;stroke-linejoin:round;stroke-miterlimit:10;stroke-opacity:1;stroke-dasharray:none"/><path id="path2816-9-4-1-8" d="m 483.57144,257.71933 c 0,28.51077 -11.32586,55.85382 -31.48602,76.01398 l -76.01398,-76.01398 z" transform="matrix(-1.1901163,0,0,-1.1901163,692.56876,952.58522)" style="fill:#fff;fill-opacity:1;stroke:#000;stroke-width:.84025401;stroke-linecap:round;stroke-linejoin:round;stroke-miterlimit:10;stroke-opacity:1;stroke-dasharray:none"/><path id="path2816-9-0-4-4-2" d="m 452.08542,333.73331 c -20.16016,20.16016 -47.5032,31.48602 -76.01398,31.48602 l 0,-107.5 z" transform="matrix(-1.1901163,0,0,-1.1901163,692.56876,952.58522)" style="fill:gray;fill-opacity:1;stroke:#000;stroke-width:.84025401;stroke-linecap:round;stroke-linejoin:round;stroke-miterlimit:10;stroke-opacity:1;stroke-dasharray:none"/></g><g id="g3890" transform="translate(-63.54214,-1809.0153)"><path id="path2816-99-5" d="m 483.57144,257.71933 c 0,59.37061 -48.12939,107.5 -107.5,107.5 -59.37061,0 -107.5,-48.12939 -107.5,-107.5 0,-59.37061 48.12939,-107.5 107.5,-107.5 59.37061,0 107.5,48.12939 107.5,107.5 z" transform="matrix(1.1901163,0,0,1.1901163,128.2182,361.78824)" style="fill:none;stroke:none"/><g id="g3878" transform="translate(0,-1e-5)"><path style="fill:#2cb52a;fill-opacity:1;stroke:none" id="path2816-9-98-0" d="m 483.57144,257.71933 c 0,28.51077 -11.32586,55.85382 -31.48602,76.01398 l -76.01398,-76.01398 z" transform="matrix(1.1901163,0,0,1.1901163,128.2182,361.78825)"/><path style="fill:#f9d503;fill-opacity:1;stroke:none" id="path2816-9-0-40-7" d="m 452.08542,333.73331 c -20.16016,20.16016 -47.5032,31.48602 -76.01398,31.48602 l 0,-107.5 z" transform="matrix(1.1901163,0,0,1.1901163,128.2182,361.78825)"/></g><g id="g3882" transform="translate(5.3452575e-6,0)"><path style="fill:#d21dc2;fill-opacity:1;stroke:none" id="path2816-9-4-0-0" d="m 483.57144,257.71933 c 0,28.51077 -11.32586,55.85382 -31.48602,76.01398 l -76.01398,-76.01398 z" transform="matrix(-1.1901163,0,0,1.1901163,1023.3557,361.78824)"/><path style="fill:#1dc5d1;fill-opacity:1;stroke:none" id="path2816-9-0-4-5-1" d="m 452.08542,333.73331 c -20.16016,20.16016 -47.5032,31.48602 -76.01398,31.48602 l 0,-107.5 z" transform="matrix(-1.1901163,0,0,1.1901163,1023.3557,361.78824)"/></g><g id="g3874" transform="translate(-36.42857,39.285711)"><path style="fill:#e61322;fill-opacity:1;stroke:none" id="path2816-9-9-0-7" d="m 483.57144,257.71933 c 0,28.51077 -11.32586,55.85382 -31.48602,76.01398 l -76.01398,-76.01398 z" transform="matrix(1.1901163,0,0,-1.1901163,164.64677,935.93448)"/><path style="fill:#345afd;fill-opacity:1;stroke:none" id="path2816-9-0-3-9-6" d="m 452.08542,333.73331 c -20.16016,20.16016 -47.5032,31.48602 -76.01398,31.48602 l 0,-107.5 z" transform="matrix(1.1901163,0,0,-1.1901163,164.64677,935.93448)"/></g><g id="g3886" transform="translate(5.3452576e-6,5.2100222e-7)"><path style="fill:#fff;fill-opacity:1;stroke:none" id="path2816-9-4-1-8-6" d="m 483.57144,257.71933 c 0,28.51077 -11.32586,55.85382 -31.48602,76.01398 l -76.01398,-76.01398 z" transform="matrix(-1.1901163,0,0,-1.1901163,1023.3557,975.22019)"/><path style="fill:gray;fill-opacity:1;stroke:none" id="path2816-9-0-4-4-2-3" d="m 452.08542,333.73331 c -20.16016,20.16016 -47.5032,31.48602 -76.01398,31.48602 l 0,-107.5 z" transform="matrix(-1.1901163,0,0,-1.1901163,1023.3557,975.22019)"/></g></g><g id="g4444" transform="translate(-42.32893,-1785.7818)"><path id="path2816-2" d="m 483.57144,257.71933 c 0,59.37061 -48.12939,107.5 -107.5,107.5 -59.37061,0 -107.5,-48.12939 -107.5,-107.5 0,-59.37061 48.12939,-107.5 107.5,-107.5 59.37061,0 107.5,48.12939 107.5,107.5 z" transform="matrix(1.1901163,0,0,1.1901163,447.4264,-7.927591)" style="fill:none;stroke:#000;stroke-width:.84025401;stroke-linecap:round;stroke-linejoin:round;stroke-miterlimit:10;stroke-opacity:1;stroke-dasharray:none"/><path id="path2816-9-1" d="m 483.57144,257.71933 c 0,28.51077 -11.32586,55.85382 -31.48602,76.01398 l -76.01398,-76.01398 z" transform="matrix(1.1901163,0,0,1.1901163,447.4264,-7.927591)" style="fill:none;stroke:#000;stroke-width:.84025401;stroke-linecap:round;stroke-linejoin:round;stroke-miterlimit:10;stroke-opacity:1;stroke-dasharray:none"/><path id="path2816-9-0-1" d="m 452.08542,333.73331 c -20.16016,20.16016 -47.5032,31.48602 -76.01398,31.48602 l 0,-107.5 z" transform="matrix(1.1901163,0,0,1.1901163,447.4264,-7.927591)" style="fill:none;stroke:#000;stroke-width:.84025401;stroke-linecap:round;stroke-linejoin:round;stroke-miterlimit:10;stroke-opacity:1;stroke-dasharray:none"/><path id="path2816-9-4-9" d="m 483.57144,257.71933 c 0,28.51077 -11.32586,55.85382 -31.48602,76.01398 l -76.01398,-76.01398 z" transform="matrix(-1.1901163,0,0,1.1901163,1342.5639,-7.927591)" style="fill:none;stroke:#000;stroke-width:.84025401;stroke-linecap:round;stroke-linejoin:round;stroke-miterlimit:10;stroke-opacity:1;stroke-dasharray:none"/><path id="path2816-9-0-4-1" d="m 452.08542,333.73331 c -20.16016,20.16016 -47.5032,31.48602 -76.01398,31.48602 l 0,-107.5 z" transform="matrix(-1.1901163,0,0,1.1901163,1342.5639,-7.927591)" style="fill:none;stroke:#000;stroke-width:.84025401;stroke-linecap:round;stroke-linejoin:round;stroke-miterlimit:10;stroke-opacity:1;stroke-dasharray:none"/><path id="path2816-9-9-7" d="m 483.57144,257.71933 c 0,28.51077 -11.32586,55.85382 -31.48602,76.01398 l -76.01398,-76.01398 z" transform="matrix(1.1901163,0,0,-1.1901163,447.4264,605.50436)" style="fill:none;stroke:#000;stroke-width:.84025401;stroke-linecap:round;stroke-linejoin:round;stroke-miterlimit:10;stroke-opacity:1;stroke-dasharray:none"/><path id="path2816-9-0-3-8" d="m 452.08542,333.73331 c -20.16016,20.16016 -47.5032,31.48602 -76.01398,31.48602 l 0,-107.5 z" transform="matrix(1.1901163,0,0,-1.1901163,447.4264,605.50436)" style="fill:#000;fill-opacity:1;stroke:#000;stroke-width:.84025401;stroke-linecap:round;stroke-linejoin:round;stroke-miterlimit:10;stroke-opacity:1;stroke-dasharray:none"/><path id="path2816-9-4-1-0" d="m 483.57144,257.71933 c 0,28.51077 -11.32586,55.85382 -31.48602,76.01398 l -76.01398,-76.01398 z" transform="matrix(-1.1901163,0,0,-1.1901163,1342.5639,605.50436)" style="fill:none;stroke:#000;stroke-width:.84025401;stroke-linecap:round;stroke-linejoin:round;stroke-miterlimit:10;stroke-opacity:1;stroke-dasharray:none"/><path id="path2816-9-0-4-4-8" d="m 452.08542,333.73331 c -20.16016,20.16016 -47.5032,31.48602 -76.01398,31.48602 l 0,-107.5 z" transform="matrix(-1.1901163,0,0,-1.1901163,1342.5639,605.50436)" style="fill:none;stroke:#000;stroke-width:.84025401;stroke-linecap:round;stroke-linejoin:round;stroke-miterlimit:10;stroke-opacity:1;stroke-dasharray:none"/></g><g id="g4433" transform="translate(-414.06507,-1500.053)"><path id="path2816-2-1" d="m 483.57144,257.71933 c 0,59.37061 -48.12939,107.5 -107.5,107.5 -59.37061,0 -107.5,-48.12939 -107.5,-107.5 0,-59.37061 48.12939,-107.5 107.5,-107.5 59.37061,0 107.5,48.12939 107.5,107.5 z" transform="matrix(1.1901163,0,0,1.1901163,819.16254,46.620644)" style="fill:none;stroke:#000;stroke-width:.84025401;stroke-linecap:round;stroke-linejoin:round;stroke-miterlimit:10;stroke-opacity:1;stroke-dasharray:none"/><path id="path2816-9-1-5" d="m 483.57144,257.71933 c 0,28.51077 -11.32586,55.85382 -31.48602,76.01398 l -76.01398,-76.01398 z" transform="matrix(1.1901163,0,0,1.1901163,819.16254,46.620648)" style="fill:none;stroke:#000;stroke-width:.84025401;stroke-linecap:round;stroke-linejoin:round;stroke-miterlimit:10;stroke-opacity:1;stroke-dasharray:none"/><path id="path2816-9-0-1-5" d="m 452.08542,333.73331 c -20.16016,20.16016 -47.5032,31.48602 -76.01398,31.48602 l 0,-107.5 z" transform="matrix(1.1901163,0,0,1.1901163,819.16254,46.620648)" style="fill:none;stroke:#000;stroke-width:.84025401;stroke-linecap:round;stroke-linejoin:round;stroke-miterlimit:10;stroke-opacity:1;stroke-dasharray:none"/><path id="path2816-9-4-9-8" d="m 483.57144,257.71933 c 0,28.51077 -11.32586,55.85382 -31.48602,76.01398 l -76.01398,-76.01398 z" transform="matrix(-1.1901163,0,0,1.1901163,1714.3001,46.620644)" style="fill:none;stroke:#000;stroke-width:.84025401;stroke-linecap:round;stroke-linejoin:round;stroke-miterlimit:10;stroke-opacity:1;stroke-dasharray:none"/><path id="path2816-9-0-4-1-4" d="m 452.08542,333.73331 c -20.16016,20.16016 -47.5032,31.48602 -76.01398,31.48602 l 0,-107.5 z" transform="matrix(-1.1901163,0,0,1.1901163,1714.3001,46.620644)" style="fill:none;stroke:#000;stroke-width:.84025401;stroke-linecap:round;stroke-linejoin:round;stroke-miterlimit:10;stroke-opacity:1;stroke-dasharray:none"/><path id="path2816-9-9-7-1" d="m 483.57144,257.71933 c 0,28.51077 -11.32586,55.85382 -31.48602,76.01398 l -76.01398,-76.01398 z" transform="matrix(1.1901163,0,0,-1.1901163,819.16254,660.05259)" style="fill:#000;fill-opacity:1;stroke:#000;stroke-width:.84025401;stroke-linecap:round;stroke-linejoin:round;stroke-miterlimit:10;stroke-opacity:1;stroke-dasharray:none"/><path id="path2816-9-0-3-8-9" d="m 452.08542,333.73331 c -20.16016,20.16016 -47.5032,31.48602 -76.01398,31.48602 l 0,-107.5 z" transform="matrix(1.1901163,0,0,-1.1901163,819.16254,660.05259)" style="fill:none;stroke:#000;stroke-width:.84025401;stroke-linecap:round;stroke-linejoin:round;stroke-miterlimit:10;stroke-opacity:1;stroke-dasharray:none"/><path id="path2816-9-4-1-0-5" d="m 483.57144,257.71933 c 0,28.51077 -11.32586,55.85382 -31.48602,76.01398 l -76.01398,-76.01398 z" transform="matrix(-1.1901163,0,0,-1.1901163,1714.3001,660.0526)" style="fill:none;stroke:#000;stroke-width:.84025401;stroke-linecap:round;stroke-linejoin:round;stroke-miterlimit:10;stroke-opacity:1;stroke-dasharray:none"/><path id="path2816-9-0-4-4-8-0" d="m 452.08542,333.73331 c -20.16016,20.16016 -47.5032,31.48602 -76.01398,31.48602 l 0,-107.5 z" transform="matrix(-1.1901163,0,0,-1.1901163,1714.3001,660.0526)" style="fill:none;stroke:#000;stroke-width:.84025401;stroke-linecap:round;stroke-linejoin:round;stroke-miterlimit:10;stroke-opacity:1;stroke-dasharray:none"/></g><g id="g4422" transform="translate(-729.23274,-1196.1414)"><path id="path2816-2-9" d="m 483.57144,257.71933 c 0,59.37061 -48.12939,107.5 -107.5,107.5 -59.37061,0 -107.5,-48.12939 -107.5,-107.5 0,-59.37061 48.12939,-107.5 107.5,-107.5 59.37061,0 107.5,48.12939 107.5,107.5 z" transform="matrix(1.1901163,0,0,1.1901163,1134.3302,82.986134)" style="fill:none;stroke:#000;stroke-width:.84025401;stroke-linecap:round;stroke-linejoin:round;stroke-miterlimit:10;stroke-opacity:1;stroke-dasharray:none"/><path id="path2816-9-1-9" d="m 483.57144,257.71933 c 0,28.51077 -11.32586,55.85382 -31.48602,76.01398 l -76.01398,-76.01398 z" transform="matrix(1.1901163,0,0,1.1901163,1134.3302,82.986138)" style="fill:#000;fill-opacity:1;stroke:#000;stroke-width:.84025401;stroke-linecap:round;stroke-linejoin:round;stroke-miterlimit:10;stroke-opacity:1;stroke-dasharray:none"/><path id="path2816-9-0-1-4" d="m 452.08542,333.73331 c -20.16016,20.16016 -47.5032,31.48602 -76.01398,31.48602 l 0,-107.5 z" transform="matrix(1.1901163,0,0,1.1901163,1134.3302,82.986138)" style="fill:none;stroke:#000;stroke-width:.84025401;stroke-linecap:round;stroke-linejoin:round;stroke-miterlimit:10;stroke-opacity:1;stroke-dasharray:none"/><path id="path2816-9-4-9-82" d="m 483.57144,257.71933 c 0,28.51077 -11.32586,55.85382 -31.48602,76.01398 l -76.01398,-76.01398 z" transform="matrix(-1.1901163,0,0,1.1901163,2029.4677,82.986134)" style="fill:none;stroke:#000;stroke-width:.84025401;stroke-linecap:round;stroke-linejoin:round;stroke-miterlimit:10;stroke-opacity:1;stroke-dasharray:none"/><path id="path2816-9-0-4-1-5" d="m 452.08542,333.73331 c -20.16016,20.16016 -47.5032,31.48602 -76.01398,31.48602 l 0,-107.5 z" transform="matrix(-1.1901163,0,0,1.1901163,2029.4677,82.986134)" style="fill:none;stroke:#000;stroke-width:.84025401;stroke-linecap:round;stroke-linejoin:round;stroke-miterlimit:10;stroke-opacity:1;stroke-dasharray:none"/><path id="path2816-9-9-7-7" d="m 483.57144,257.71933 c 0,28.51077 -11.32586,55.85382 -31.48602,76.01398 l -76.01398,-76.01398 z" transform="matrix(1.1901163,0,0,-1.1901163,1134.3302,696.41808)" style="fill:none;stroke:#000;stroke-width:.84025401;stroke-linecap:round;stroke-linejoin:round;stroke-miterlimit:10;stroke-opacity:1;stroke-dasharray:none"/><path id="path2816-9-0-3-8-2" d="m 452.08542,333.73331 c -20.16016,20.16016 -47.5032,31.48602 -76.01398,31.48602 l 0,-107.5 z" transform="matrix(1.1901163,0,0,-1.1901163,1134.3302,696.41808)" style="fill:none;stroke:#000;stroke-width:.84025401;stroke-linecap:round;stroke-linejoin:round;stroke-miterlimit:10;stroke-opacity:1;stroke-dasharray:none"/><path id="path2816-9-4-1-0-1" d="m 483.57144,257.71933 c 0,28.51077 -11.32586,55.85382 -31.48602,76.01398 l -76.01398,-76.01398 z" transform="matrix(-1.1901163,0,0,-1.1901163,2029.4677,696.41808)" style="fill:none;stroke:#000;stroke-width:.84025401;stroke-linecap:round;stroke-linejoin:round;stroke-miterlimit:10;stroke-opacity:1;stroke-dasharray:none"/><path id="path2816-9-0-4-4-8-7" d="m 452.08542,333.73331 c -20.16016,20.16016 -47.5032,31.48602 -76.01398,31.48602 l 0,-107.5 z" transform="matrix(-1.1901163,0,0,-1.1901163,2029.4677,696.41808)" style="fill:none;stroke:#000;stroke-width:.84025401;stroke-linecap:round;stroke-linejoin:round;stroke-miterlimit:10;stroke-opacity:1;stroke-dasharray:none"/></g><g id="g4411" transform="translate(-1109.05,-876.06733)"><path id="path2816-2-3" d="m 483.57144,257.71933 c 0,59.37061 -48.12939,107.5 -107.5,107.5 -59.37061,0 -107.5,-48.12939 -107.5,-107.5 0,-59.37061 48.12939,-107.5 107.5,-107.5 59.37061,0 107.5,48.12939 107.5,107.5 z" transform="matrix(1.1901163,0,0,1.1901163,1514.1475,103.18918)" style="fill:none;stroke:#000;stroke-width:.84025401;stroke-linecap:round;stroke-linejoin:round;stroke-miterlimit:10;stroke-opacity:1;stroke-dasharray:none"/><path id="path2816-9-1-2" d="m 483.57144,257.71933 c 0,28.51077 -11.32586,55.85382 -31.48602,76.01398 l -76.01398,-76.01398 z" transform="matrix(1.1901163,0,0,1.1901163,1514.1475,103.18919)" style="fill:none;stroke:#000;stroke-width:.84025401;stroke-linecap:round;stroke-linejoin:round;stroke-miterlimit:10;stroke-opacity:1;stroke-dasharray:none"/><path id="path2816-9-0-1-3" d="m 452.08542,333.73331 c -20.16016,20.16016 -47.5032,31.48602 -76.01398,31.48602 l 0,-107.5 z" transform="matrix(1.1901163,0,0,1.1901163,1514.1475,103.18919)" style="fill:#000;fill-opacity:1;stroke:#000;stroke-width:.84025401;stroke-linecap:round;stroke-linejoin:round;stroke-miterlimit:10;stroke-opacity:1;stroke-dasharray:none"/><path id="path2816-9-4-9-9" d="m 483.57144,257.71933 c 0,28.51077 -11.32586,55.85382 -31.48602,76.01398 l -76.01398,-76.01398 z" transform="matrix(-1.1901163,0,0,1.1901163,2409.285,103.18918)" style="fill:none;stroke:#000;stroke-width:.84025401;stroke-linecap:round;stroke-linejoin:round;stroke-miterlimit:10;stroke-opacity:1;stroke-dasharray:none"/><path id="path2816-9-0-4-1-6" d="m 452.08542,333.73331 c -20.16016,20.16016 -47.5032,31.48602 -76.01398,31.48602 l 0,-107.5 z" transform="matrix(-1.1901163,0,0,1.1901163,2409.285,103.18918)" style="fill:none;stroke:#000;stroke-width:.84025401;stroke-linecap:round;stroke-linejoin:round;stroke-miterlimit:10;stroke-opacity:1;stroke-dasharray:none"/><path id="path2816-9-9-7-5" d="m 483.57144,257.71933 c 0,28.51077 -11.32586,55.85382 -31.48602,76.01398 l -76.01398,-76.01398 z" transform="matrix(1.1901163,0,0,-1.1901163,1514.1475,716.62113)" style="fill:none;stroke:#000;stroke-width:.84025401;stroke-linecap:round;stroke-linejoin:round;stroke-miterlimit:10;stroke-opacity:1;stroke-dasharray:none"/><path id="path2816-9-0-3-8-5" d="m 452.08542,333.73331 c -20.16016,20.16016 -47.5032,31.48602 -76.01398,31.48602 l 0,-107.5 z" transform="matrix(1.1901163,0,0,-1.1901163,1514.1475,716.62113)" style="fill:none;stroke:#000;stroke-width:.84025401;stroke-linecap:round;stroke-linejoin:round;stroke-miterlimit:10;stroke-opacity:1;stroke-dasharray:none"/><path id="path2816-9-4-1-0-50" d="m 483.57144,257.71933 c 0,28.51077 -11.32586,55.85382 -31.48602,76.01398 l -76.01398,-76.01398 z" transform="matrix(-1.1901163,0,0,-1.1901163,2409.285,716.62113)" style="fill:none;stroke:#000;stroke-width:.84025401;stroke-linecap:round;stroke-linejoin:round;stroke-miterlimit:10;stroke-opacity:1;stroke-dasharray:none"/><path id="path2816-9-0-4-4-8-2" d="m 452.08542,333.73331 c -20.16016,20.16016 -47.5032,31.48602 -76.01398,31.48602 l 0,-107.5 z" transform="matrix(-1.1901163,0,0,-1.1901163,2409.285,716.62113)" style="fill:none;stroke:#000;stroke-width:.84025401;stroke-linecap:round;stroke-linejoin:round;stroke-miterlimit:10;stroke-opacity:1;stroke-dasharray:none"/></g><g id="g4455" transform="translate(-139.30357,-848.9375)"><path id="path2816-2-98" d="m 483.57144,257.71933 c 0,59.37061 -48.12939,107.5 -107.5,107.5 -59.37061,0 -107.5,-48.12939 -107.5,-107.5 0,-59.37061 48.12939,-107.5 107.5,-107.5 59.37061,0 107.5,48.12939 107.5,107.5 z" transform="matrix(1.1901163,0,0,1.1901163,544.40104,416.33647)" style="fill:none;stroke:#000;stroke-width:.84025401;stroke-linecap:round;stroke-linejoin:round;stroke-miterlimit:10;stroke-opacity:1;stroke-dasharray:none"/><path id="path2816-9-1-7" d="m 483.57144,257.71933 c 0,28.51077 -11.32586,55.85382 -31.48602,76.01398 l -76.01398,-76.01398 z" transform="matrix(1.1901163,0,0,1.1901163,544.40104,416.33648)" style="fill:none;stroke:#000;stroke-width:.84025401;stroke-linecap:round;stroke-linejoin:round;stroke-miterlimit:10;stroke-opacity:1;stroke-dasharray:none"/><path id="path2816-9-0-1-0" d="m 452.08542,333.73331 c -20.16016,20.16016 -47.5032,31.48602 -76.01398,31.48602 l 0,-107.5 z" transform="matrix(1.1901163,0,0,1.1901163,544.40104,416.33648)" style="fill:none;stroke:#000;stroke-width:.84025401;stroke-linecap:round;stroke-linejoin:round;stroke-miterlimit:10;stroke-opacity:1;stroke-dasharray:none"/><path id="path2816-9-4-9-98" d="m 483.57144,257.71933 c 0,28.51077 -11.32586,55.85382 -31.48602,76.01398 l -76.01398,-76.01398 z" transform="matrix(-1.1901163,0,0,1.1901163,1439.5386,416.33647)" style="fill:none;stroke:#000;stroke-width:.84025401;stroke-linecap:round;stroke-linejoin:round;stroke-miterlimit:10;stroke-opacity:1;stroke-dasharray:none"/><path id="path2816-9-0-4-1-0" d="m 452.08542,333.73331 c -20.16016,20.16016 -47.5032,31.48602 -76.01398,31.48602 l 0,-107.5 z" transform="matrix(-1.1901163,0,0,1.1901163,1439.5386,416.33647)" style="fill:#000;fill-opacity:1;stroke:#000;stroke-width:.84025401;stroke-linecap:round;stroke-linejoin:round;stroke-miterlimit:10;stroke-opacity:1;stroke-dasharray:none"/><path id="path2816-9-9-7-71" d="m 483.57144,257.71933 c 0,28.51077 -11.32586,55.85382 -31.48602,76.01398 l -76.01398,-76.01398 z" transform="matrix(1.1901163,0,0,-1.1901163,544.40104,1029.7684)" style="fill:none;stroke:#000;stroke-width:.84025401;stroke-linecap:round;stroke-linejoin:round;stroke-miterlimit:10;stroke-opacity:1;stroke-dasharray:none"/><path id="path2816-9-0-3-8-53" d="m 452.08542,333.73331 c -20.16016,20.16016 -47.5032,31.48602 -76.01398,31.48602 l 0,-107.5 z" transform="matrix(1.1901163,0,0,-1.1901163,544.40104,1029.7684)" style="fill:none;stroke:#000;stroke-width:.84025401;stroke-linecap:round;stroke-linejoin:round;stroke-miterlimit:10;stroke-opacity:1;stroke-dasharray:none"/><path id="path2816-9-4-1-0-9" d="m 483.57144,257.71933 c 0,28.51077 -11.32586,55.85382 -31.48602,76.01398 l -76.01398,-76.01398 z" transform="matrix(-1.1901163,0,0,-1.1901163,1439.5386,1029.7684)" style="fill:none;stroke:#000;stroke-width:.84025401;stroke-linecap:round;stroke-linejoin:round;stroke-miterlimit:10;stroke-opacity:1;stroke-dasharray:none"/><path id="path2816-9-0-4-4-8-6" d="m 452.08542,333.73331 c -20.16016,20.16016 -47.5032,31.48602 -76.01398,31.48602 l 0,-107.5 z" transform="matrix(-1.1901163,0,0,-1.1901163,1439.5386,1029.7684)" style="fill:none;stroke:#000;stroke-width:.84025401;stroke-linecap:round;stroke-linejoin:round;stroke-miterlimit:10;stroke-opacity:1;stroke-dasharray:none"/></g><g id="g4466" transform="translate(-474.67421,-506.6401)"><path id="path2816-2-2" d="m 483.57144,257.71933 c 0,59.37061 -48.12939,107.5 -107.5,107.5 -59.37061,0 -107.5,-48.12939 -107.5,-107.5 0,-59.37061 48.12939,-107.5 107.5,-107.5 59.37061,0 107.5,48.12939 107.5,107.5 z" transform="matrix(1.1901163,0,0,1.1901163,879.77168,414.31617)" style="fill:none;stroke:#000;stroke-width:.84025401;stroke-linecap:round;stroke-linejoin:round;stroke-miterlimit:10;stroke-opacity:1;stroke-dasharray:none"/><path id="path2816-9-1-0" d="m 483.57144,257.71933 c 0,28.51077 -11.32586,55.85382 -31.48602,76.01398 l -76.01398,-76.01398 z" transform="matrix(1.1901163,0,0,1.1901163,879.77168,414.31618)" style="fill:none;stroke:#000;stroke-width:.84025401;stroke-linecap:round;stroke-linejoin:round;stroke-miterlimit:10;stroke-opacity:1;stroke-dasharray:none"/><path id="path2816-9-0-1-8" d="m 452.08542,333.73331 c -20.16016,20.16016 -47.5032,31.48602 -76.01398,31.48602 l 0,-107.5 z" transform="matrix(1.1901163,0,0,1.1901163,879.77168,414.31618)" style="fill:none;stroke:#000;stroke-width:.84025401;stroke-linecap:round;stroke-linejoin:round;stroke-miterlimit:10;stroke-opacity:1;stroke-dasharray:none"/><path id="path2816-9-4-9-2" d="m 483.57144,257.71933 c 0,28.51077 -11.32586,55.85382 -31.48602,76.01398 l -76.01398,-76.01398 z" transform="matrix(-1.1901163,0,0,1.1901163,1774.9092,414.31617)" style="fill:#000;fill-opacity:1;stroke:#000;stroke-width:.84025401;stroke-linecap:round;stroke-linejoin:round;stroke-miterlimit:10;stroke-opacity:1;stroke-dasharray:none"/><path id="path2816-9-0-4-1-2" d="m 452.08542,333.73331 c -20.16016,20.16016 -47.5032,31.48602 -76.01398,31.48602 l 0,-107.5 z" transform="matrix(-1.1901163,0,0,1.1901163,1774.9092,414.31617)" style="fill:none;stroke:#000;stroke-width:.84025401;stroke-linecap:round;stroke-linejoin:round;stroke-miterlimit:10;stroke-opacity:1;stroke-dasharray:none"/><path id="path2816-9-9-7-3" d="m 483.57144,257.71933 c 0,28.51077 -11.32586,55.85382 -31.48602,76.01398 l -76.01398,-76.01398 z" transform="matrix(1.1901163,0,0,-1.1901163,879.77168,1027.7481)" style="fill:none;stroke:#000;stroke-width:.84025401;stroke-linecap:round;stroke-linejoin:round;stroke-miterlimit:10;stroke-opacity:1;stroke-dasharray:none"/><path id="path2816-9-0-3-8-1" d="m 452.08542,333.73331 c -20.16016,20.16016 -47.5032,31.48602 -76.01398,31.48602 l 0,-107.5 z" transform="matrix(1.1901163,0,0,-1.1901163,879.77168,1027.7481)" style="fill:none;stroke:#000;stroke-width:.84025401;stroke-linecap:round;stroke-linejoin:round;stroke-miterlimit:10;stroke-opacity:1;stroke-dasharray:none"/><path id="path2816-9-4-1-0-12" d="m 483.57144,257.71933 c 0,28.51077 -11.32586,55.85382 -31.48602,76.01398 l -76.01398,-76.01398 z" transform="matrix(-1.1901163,0,0,-1.1901163,1774.9092,1027.7481)" style="fill:none;stroke:#000;stroke-width:.84025401;stroke-linecap:round;stroke-linejoin:round;stroke-miterlimit:10;stroke-opacity:1;stroke-dasharray:none"/><path id="path2816-9-0-4-4-8-5" d="m 452.08542,333.73331 c -20.16016,20.16016 -47.5032,31.48602 -76.01398,31.48602 l 0,-107.5 z" transform="matrix(-1.1901163,0,0,-1.1901163,1774.9092,1027.7481)" style="fill:none;stroke:#000;stroke-width:.84025401;stroke-linecap:round;stroke-linejoin:round;stroke-miterlimit:10;stroke-opacity:1;stroke-dasharray:none"/></g><g id="g4477" transform="translate(-836.30884,-192.627)"><path id="path2816-2-29" d="m 483.57144,257.71933 c 0,59.37061 -48.12939,107.5 -107.5,107.5 -59.37061,0 -107.5,-48.12939 -107.5,-107.5 0,-59.37061 48.12939,-107.5 107.5,-107.5 59.37061,0 107.5,48.12939 107.5,107.5 z" transform="matrix(1.1901163,0,0,1.1901163,1241.4063,440.58013)" style="fill:none;stroke:#000;stroke-width:.84025401;stroke-linecap:round;stroke-linejoin:round;stroke-miterlimit:10;stroke-opacity:1;stroke-dasharray:none"/><path id="path2816-9-1-59" d="m 483.57144,257.71933 c 0,28.51077 -11.32586,55.85382 -31.48602,76.01398 l -76.01398,-76.01398 z" transform="matrix(1.1901163,0,0,1.1901163,1241.4063,440.58014)" style="fill:none;stroke:#000;stroke-width:.84025401;stroke-linecap:round;stroke-linejoin:round;stroke-miterlimit:10;stroke-opacity:1;stroke-dasharray:none"/><path id="path2816-9-0-1-02" d="m 452.08542,333.73331 c -20.16016,20.16016 -47.5032,31.48602 -76.01398,31.48602 l 0,-107.5 z" transform="matrix(1.1901163,0,0,1.1901163,1241.4063,440.58014)" style="fill:none;stroke:#000;stroke-width:.84025401;stroke-linecap:round;stroke-linejoin:round;stroke-miterlimit:10;stroke-opacity:1;stroke-dasharray:none"/><path id="path2816-9-4-9-3" d="m 483.57144,257.71933 c 0,28.51077 -11.32586,55.85382 -31.48602,76.01398 l -76.01398,-76.01398 z" transform="matrix(-1.1901163,0,0,1.1901163,2136.5438,440.58013)" style="fill:none;stroke:#000;stroke-width:.84025401;stroke-linecap:round;stroke-linejoin:round;stroke-miterlimit:10;stroke-opacity:1;stroke-dasharray:none"/><path id="path2816-9-0-4-1-20" d="m 452.08542,333.73331 c -20.16016,20.16016 -47.5032,31.48602 -76.01398,31.48602 l 0,-107.5 z" transform="matrix(-1.1901163,0,0,1.1901163,2136.5438,440.58013)" style="fill:none;stroke:#000;stroke-width:.84025401;stroke-linecap:round;stroke-linejoin:round;stroke-miterlimit:10;stroke-opacity:1;stroke-dasharray:none"/><path id="path2816-9-9-7-4" d="m 483.57144,257.71933 c 0,28.51077 -11.32586,55.85382 -31.48602,76.01398 l -76.01398,-76.01398 z" transform="matrix(1.1901163,0,0,-1.1901163,1241.4063,1054.0121)" style="fill:none;stroke:#000;stroke-width:.84025401;stroke-linecap:round;stroke-linejoin:round;stroke-miterlimit:10;stroke-opacity:1;stroke-dasharray:none"/><path id="path2816-9-0-3-8-50" d="m 452.08542,333.73331 c -20.16016,20.16016 -47.5032,31.48602 -76.01398,31.48602 l 0,-107.5 z" transform="matrix(1.1901163,0,0,-1.1901163,1241.4063,1054.0121)" style="fill:none;stroke:#000;stroke-width:.84025401;stroke-linecap:round;stroke-linejoin:round;stroke-miterlimit:10;stroke-opacity:1;stroke-dasharray:none"/><path id="path2816-9-4-1-0-7" d="m 483.57144,257.71933 c 0,28.51077 -11.32586,55.85382 -31.48602,76.01398 l -76.01398,-76.01398 z" transform="matrix(-1.1901163,0,0,-1.1901163,2136.5438,1054.0121)" style="fill:#000;fill-opacity:1;stroke:#000;stroke-width:.84025401;stroke-linecap:round;stroke-linejoin:round;stroke-miterlimit:10;stroke-opacity:1;stroke-dasharray:none"/><path id="path2816-9-0-4-4-8-08" d="m 452.08542,333.73331 c -20.16016,20.16016 -47.5032,31.48602 -76.01398,31.48602 l 0,-107.5 z" transform="matrix(-1.1901163,0,0,-1.1901163,2136.5438,1054.0121)" style="fill:none;stroke:#000;stroke-width:.84025401;stroke-linecap:round;stroke-linejoin:round;stroke-miterlimit:10;stroke-opacity:1;stroke-dasharray:none"/></g><g id="g4488" transform="translate(-1244.4105,113.3049)"><path id="path2816-2-4" d="m 483.57144,257.71933 c 0,59.37061 -48.12939,107.5 -107.5,107.5 -59.37061,0 -107.5,-48.12939 -107.5,-107.5 0,-59.37061 48.12939,-107.5 107.5,-107.5 59.37061,0 107.5,48.12939 107.5,107.5 z" transform="matrix(1.1901163,0,0,1.1901163,1649.508,474.92532)" style="fill:none;stroke:#000;stroke-width:.84025401;stroke-linecap:round;stroke-linejoin:round;stroke-miterlimit:10;stroke-opacity:1;stroke-dasharray:none"/><path id="path2816-9-1-6" d="m 483.57144,257.71933 c 0,28.51077 -11.32586,55.85382 -31.48602,76.01398 l -76.01398,-76.01398 z" transform="matrix(1.1901163,0,0,1.1901163,1649.508,474.92533)" style="fill:none;stroke:#000;stroke-width:.84025401;stroke-linecap:round;stroke-linejoin:round;stroke-miterlimit:10;stroke-opacity:1;stroke-dasharray:none"/><path id="path2816-9-0-1-1" d="m 452.08542,333.73331 c -20.16016,20.16016 -47.5032,31.48602 -76.01398,31.48602 l 0,-107.5 z" transform="matrix(1.1901163,0,0,1.1901163,1649.508,474.92533)" style="fill:none;stroke:#000;stroke-width:.84025401;stroke-linecap:round;stroke-linejoin:round;stroke-miterlimit:10;stroke-opacity:1;stroke-dasharray:none"/><path id="path2816-9-4-9-820" d="m 483.57144,257.71933 c 0,28.51077 -11.32586,55.85382 -31.48602,76.01398 l -76.01398,-76.01398 z" transform="matrix(-1.1901163,0,0,1.1901163,2544.6455,474.92532)" style="fill:none;stroke:#000;stroke-width:.84025401;stroke-linecap:round;stroke-linejoin:round;stroke-miterlimit:10;stroke-opacity:1;stroke-dasharray:none"/><path id="path2816-9-0-4-1-56" d="m 452.08542,333.73331 c -20.16016,20.16016 -47.5032,31.48602 -76.01398,31.48602 l 0,-107.5 z" transform="matrix(-1.1901163,0,0,1.1901163,2544.6455,474.92532)" style="fill:none;stroke:#000;stroke-width:.84025401;stroke-linecap:round;stroke-linejoin:round;stroke-miterlimit:10;stroke-opacity:1;stroke-dasharray:none"/><path id="path2816-9-9-7-10" d="m 483.57144,257.71933 c 0,28.51077 -11.32586,55.85382 -31.48602,76.01398 l -76.01398,-76.01398 z" transform="matrix(1.1901163,0,0,-1.1901163,1649.508,1088.3573)" style="fill:none;stroke:#000;stroke-width:.84025401;stroke-linecap:round;stroke-linejoin:round;stroke-miterlimit:10;stroke-opacity:1;stroke-dasharray:none"/><path id="path2816-9-0-3-8-4" d="m 452.08542,333.73331 c -20.16016,20.16016 -47.5032,31.48602 -76.01398,31.48602 l 0,-107.5 z" transform="matrix(1.1901163,0,0,-1.1901163,1649.508,1088.3573)" style="fill:none;stroke:#000;stroke-width:.84025401;stroke-linecap:round;stroke-linejoin:round;stroke-miterlimit:10;stroke-opacity:1;stroke-dasharray:none"/><path id="path2816-9-4-1-0-4" d="m 483.57144,257.71933 c 0,28.51077 -11.32586,55.85382 -31.48602,76.01398 l -76.01398,-76.01398 z" transform="matrix(-1.1901163,0,0,-1.1901163,2544.6455,1088.3573)" style="fill:none;stroke:#000;stroke-width:.84025401;stroke-linecap:round;stroke-linejoin:round;stroke-miterlimit:10;stroke-opacity:1;stroke-dasharray:none"/><path id="path2816-9-0-4-4-8-9" d="m 452.08542,333.73331 c -20.16016,20.16016 -47.5032,31.48602 -76.01398,31.48602 l 0,-107.5 z" transform="matrix(-1.1901163,0,0,-1.1901163,2544.6455,1088.3573)" style="fill:#000;fill-opacity:1;stroke:#000;stroke-width:.84025401;stroke-linecap:round;stroke-linejoin:round;stroke-miterlimit:10;stroke-opacity:1;stroke-dasharray:none"/></g><g id="g4213" transform="translate(-664.5829,-1280.7055)"><path id="path2816-2-0" d="m 483.57144,257.71933 c 0,59.37061 -48.12939,107.5 -107.5,107.5 -59.37061,0 -107.5,-48.12939 -107.5,-107.5 0,-59.37061 48.12939,-107.5 107.5,-107.5 59.37061,0 107.5,48.12939 107.5,107.5 z" transform="matrix(1.1901163,0,0,1.1901163,1464.9541,-513.89507)" style="fill:none;stroke:none"/><path id="path2816-9-1-4" d="m 483.57144,257.71933 c 0,28.51077 -11.32586,55.85382 -31.48602,76.01398 l -76.01398,-76.01398 z" transform="matrix(1.1901163,0,0,1.1901163,1464.9541,-513.89507)" style="fill:none;stroke:none"/><path id="path2816-9-0-1-44" d="m 452.08542,333.73331 c -20.16016,20.16016 -47.5032,31.48602 -76.01398,31.48602 l 0,-107.5 z" transform="matrix(1.1901163,0,0,1.1901163,1464.9541,-513.89507)" style="fill:none;stroke:none"/><path id="path2816-9-4-9-4" d="m 483.57144,257.71933 c 0,28.51077 -11.32586,55.85382 -31.48602,76.01398 l -76.01398,-76.01398 z" transform="matrix(-1.1901163,0,0,1.1901163,2360.0916,-513.89507)" style="fill:none;stroke:none"/><path id="path2816-9-0-4-1-7" d="m 452.08542,333.73331 c -20.16016,20.16016 -47.5032,31.48602 -76.01398,31.48602 l 0,-107.5 z" transform="matrix(-1.1901163,0,0,1.1901163,2360.0916,-513.89507)" style="fill:none;stroke:none"/><path id="path2816-9-9-7-6" d="m 483.57144,257.71933 c 0,28.51077 -11.32586,55.85382 -31.48602,76.01398 l -76.01398,-76.01398 z" transform="matrix(1.1901163,0,0,-1.1901163,1464.9541,99.53688)" style="fill:none;stroke:none"/><path id="path2816-9-0-3-8-3" d="m 452.08542,333.73331 c -20.16016,20.16016 -47.5032,31.48602 -76.01398,31.48602 l 0,-107.5 z" transform="matrix(1.1901163,0,0,-1.1901163,1464.9541,99.53688)" style="fill:#000;fill-opacity:1;stroke:#000;stroke-width:.84025401;stroke-linecap:round;stroke-linejoin:round;stroke-miterlimit:10;stroke-opacity:1;stroke-dasharray:none"/><path id="path2816-9-4-1-0-17" d="m 483.57144,257.71933 c 0,28.51077 -11.32586,55.85382 -31.48602,76.01398 l -76.01398,-76.01398 z" transform="matrix(-1.1901163,0,0,-1.1901163,2360.0916,99.53688)" style="fill:none;stroke:none"/><path id="path2816-9-0-4-4-8-59" d="m 452.08542,333.73331 c -20.16016,20.16016 -47.5032,31.48602 -76.01398,31.48602 l 0,-107.5 z" transform="matrix(-1.1901163,0,0,-1.1901163,2360.0916,99.53688)" style="fill:none;stroke:none"/></g><g id="g4224" transform="translate(-672.91401,-1322.5161)"><path id="path2816-2-1-2" d="m 483.57144,257.71933 c 0,59.37061 -48.12939,107.5 -107.5,107.5 -59.37061,0 -107.5,-48.12939 -107.5,-107.5 0,-59.37061 48.12939,-107.5 107.5,-107.5 59.37061,0 107.5,48.12939 107.5,107.5 z" transform="matrix(1.1901163,0,0,1.1901163,1473.0352,-132.05741)" style="fill:none;stroke:none"/><path id="path2816-9-1-5-1" d="m 483.57144,257.71933 c 0,28.51077 -11.32586,55.85382 -31.48602,76.01398 l -76.01398,-76.01398 z" transform="matrix(1.1901163,0,0,1.1901163,1473.0352,-132.0574)" style="fill:none;stroke:none"/><path id="path2816-9-0-1-5-7" d="m 452.08542,333.73331 c -20.16016,20.16016 -47.5032,31.48602 -76.01398,31.48602 l 0,-107.5 z" transform="matrix(1.1901163,0,0,1.1901163,1473.0352,-132.0574)" style="fill:none;stroke:none"/><path id="path2816-9-4-9-8-8" d="m 483.57144,257.71933 c 0,28.51077 -11.32586,55.85382 -31.48602,76.01398 l -76.01398,-76.01398 z" transform="matrix(-1.1901163,0,0,1.1901163,2368.1728,-132.05741)" style="fill:none;stroke:none"/><path id="path2816-9-0-4-1-4-5" d="m 452.08542,333.73331 c -20.16016,20.16016 -47.5032,31.48602 -76.01398,31.48602 l 0,-107.5 z" transform="matrix(-1.1901163,0,0,1.1901163,2368.1728,-132.05741)" style="fill:none;stroke:none"/><path id="path2816-9-9-7-1-7" d="m 483.57144,257.71933 c 0,28.51077 -11.32586,55.85382 -31.48602,76.01398 l -76.01398,-76.01398 z" transform="matrix(1.1901163,0,0,-1.1901163,1473.0352,481.37454)" style="fill:#000;fill-opacity:1;stroke:#000;stroke-width:.84025401;stroke-linecap:round;stroke-linejoin:round;stroke-miterlimit:10;stroke-opacity:1;stroke-dasharray:none"/><path id="path2816-9-0-3-8-9-4" d="m 452.08542,333.73331 c -20.16016,20.16016 -47.5032,31.48602 -76.01398,31.48602 l 0,-107.5 z" transform="matrix(1.1901163,0,0,-1.1901163,1473.0352,481.37454)" style="fill:none;stroke:none"/><path id="path2816-9-4-1-0-5-1" d="m 483.57144,257.71933 c 0,28.51077 -11.32586,55.85382 -31.48602,76.01398 l -76.01398,-76.01398 z" transform="matrix(-1.1901163,0,0,-1.1901163,2368.1728,481.37455)" style="fill:none;stroke:none"/><path id="path2816-9-0-4-4-8-0-8" d="m 452.08542,333.73331 c -20.16016,20.16016 -47.5032,31.48602 -76.01398,31.48602 l 0,-107.5 z" transform="matrix(-1.1901163,0,0,-1.1901163,2368.1728,481.37455)" style="fill:none;stroke:none"/></g><g id="g4235" transform="translate(-705.23904,-1273.1629)"><path id="path2816-2-9-9" d="m 483.57144,257.71933 c 0,59.37061 -48.12939,107.5 -107.5,107.5 -59.37061,0 -107.5,-48.12939 -107.5,-107.5 0,-59.37061 48.12939,-107.5 107.5,-107.5 59.37061,0 107.5,48.12939 107.5,107.5 z" transform="matrix(1.1901163,0,0,1.1901163,1505.3602,158.86653)" style="fill:none;stroke:none"/><path id="path2816-9-1-9-7" d="m 483.57144,257.71933 c 0,28.51077 -11.32586,55.85382 -31.48602,76.01398 l -76.01398,-76.01398 z" transform="matrix(1.1901163,0,0,1.1901163,1505.3602,158.86653)" style="fill:#000;fill-opacity:1;stroke:#000;stroke-width:.84025401;stroke-linecap:round;stroke-linejoin:round;stroke-miterlimit:10;stroke-opacity:1;stroke-dasharray:none"/><path id="path2816-9-0-1-4-5" d="m 452.08542,333.73331 c -20.16016,20.16016 -47.5032,31.48602 -76.01398,31.48602 l 0,-107.5 z" transform="matrix(1.1901163,0,0,1.1901163,1505.3602,158.86653)" style="fill:none;stroke:none"/><path id="path2816-9-4-9-82-3" d="m 483.57144,257.71933 c 0,28.51077 -11.32586,55.85382 -31.48602,76.01398 l -76.01398,-76.01398 z" transform="matrix(-1.1901163,0,0,1.1901163,2400.4977,158.86653)" style="fill:none;stroke:none"/><path id="path2816-9-0-4-1-5-8" d="m 452.08542,333.73331 c -20.16016,20.16016 -47.5032,31.48602 -76.01398,31.48602 l 0,-107.5 z" transform="matrix(-1.1901163,0,0,1.1901163,2400.4977,158.86653)" style="fill:none;stroke:none"/><path id="path2816-9-9-7-7-8" d="m 483.57144,257.71933 c 0,28.51077 -11.32586,55.85382 -31.48602,76.01398 l -76.01398,-76.01398 z" transform="matrix(1.1901163,0,0,-1.1901163,1505.3602,772.29847)" style="fill:none;stroke:none"/><path id="path2816-9-0-3-8-2-3" d="m 452.08542,333.73331 c -20.16016,20.16016 -47.5032,31.48602 -76.01398,31.48602 l 0,-107.5 z" transform="matrix(1.1901163,0,0,-1.1901163,1505.3602,772.29847)" style="fill:none;stroke:none"/><path id="path2816-9-4-1-0-1-1" d="m 483.57144,257.71933 c 0,28.51077 -11.32586,55.85382 -31.48602,76.01398 l -76.01398,-76.01398 z" transform="matrix(-1.1901163,0,0,-1.1901163,2400.4977,772.29847)" style="fill:none;stroke:none"/><path id="path2816-9-0-4-4-8-7-8" d="m 452.08542,333.73331 c -20.16016,20.16016 -47.5032,31.48602 -76.01398,31.48602 l 0,-107.5 z" transform="matrix(-1.1901163,0,0,-1.1901163,2400.4977,772.29847)" style="fill:none;stroke:none"/></g><g id="g4246" transform="translate(-709.02964,-1300.8314)"><path id="path2816-2-3-6" d="m 483.57144,257.71933 c 0,59.37061 -48.12939,107.5 -107.5,107.5 -59.37061,0 -107.5,-48.12939 -107.5,-107.5 0,-59.37061 48.12939,-107.5 107.5,-107.5 59.37061,0 107.5,48.12939 107.5,107.5 z" transform="matrix(1.1901163,0,0,1.1901163,1509.4008,526.56206)" style="fill:none;stroke:none"/><path id="path2816-9-1-2-4" d="m 483.57144,257.71933 c 0,28.51077 -11.32586,55.85382 -31.48602,76.01398 l -76.01398,-76.01398 z" transform="matrix(1.1901163,0,0,1.1901163,1509.4008,526.56207)" style="fill:none;stroke:none"/><path id="path2816-9-0-1-3-3" d="m 452.08542,333.73331 c -20.16016,20.16016 -47.5032,31.48602 -76.01398,31.48602 l 0,-107.5 z" transform="matrix(1.1901163,0,0,1.1901163,1509.4008,526.56207)" style="fill:#000;fill-opacity:1;stroke:#000;stroke-width:.84025401;stroke-linecap:round;stroke-linejoin:round;stroke-miterlimit:10;stroke-opacity:1;stroke-dasharray:none"/><path id="path2816-9-4-9-9-3" d="m 483.57144,257.71933 c 0,28.51077 -11.32586,55.85382 -31.48602,76.01398 l -76.01398,-76.01398 z" transform="matrix(-1.1901163,0,0,1.1901163,2404.5383,526.56206)" style="fill:none;stroke:none"/><path id="path2816-9-0-4-1-6-3" d="m 452.08542,333.73331 c -20.16016,20.16016 -47.5032,31.48602 -76.01398,31.48602 l 0,-107.5 z" transform="matrix(-1.1901163,0,0,1.1901163,2404.5383,526.56206)" style="fill:none;stroke:none"/><path id="path2816-9-9-7-5-8" d="m 483.57144,257.71933 c 0,28.51077 -11.32586,55.85382 -31.48602,76.01398 l -76.01398,-76.01398 z" transform="matrix(1.1901163,0,0,-1.1901163,1509.4008,1139.994)" style="fill:none;stroke:none"/><path id="path2816-9-0-3-8-5-6" d="m 452.08542,333.73331 c -20.16016,20.16016 -47.5032,31.48602 -76.01398,31.48602 l 0,-107.5 z" transform="matrix(1.1901163,0,0,-1.1901163,1509.4008,1139.994)" style="fill:none;stroke:none"/><path id="path2816-9-4-1-0-50-0" d="m 483.57144,257.71933 c 0,28.51077 -11.32586,55.85382 -31.48602,76.01398 l -76.01398,-76.01398 z" transform="matrix(-1.1901163,0,0,-1.1901163,2404.5383,1139.994)" style="fill:none;stroke:none"/><path id="path2816-9-0-4-4-8-2-4" d="m 452.08542,333.73331 c -20.16016,20.16016 -47.5032,31.48602 -76.01398,31.48602 l 0,-107.5 z" transform="matrix(-1.1901163,0,0,-1.1901163,2404.5383,1139.994)" style="fill:none;stroke:none"/></g><g id="g4257" transform="translate(-733.27324,-1297.9452)"><path id="path2816-2-98-8" d="m 483.57144,257.71933 c 0,59.37061 -48.12939,107.5 -107.5,107.5 -59.37061,0 -107.5,-48.12939 -107.5,-107.5 0,-59.37061 48.12939,-107.5 107.5,-107.5 59.37061,0 107.5,48.12939 107.5,107.5 z" transform="matrix(1.1901163,0,0,1.1901163,1533.6444,863.95296)" style="fill:none;stroke:none"/><path id="path2816-9-1-7-8" d="m 483.57144,257.71933 c 0,28.51077 -11.32586,55.85382 -31.48602,76.01398 l -76.01398,-76.01398 z" transform="matrix(1.1901163,0,0,1.1901163,1533.6444,863.95297)" style="fill:none;stroke:none"/><path id="path2816-9-0-1-0-9" d="m 452.08542,333.73331 c -20.16016,20.16016 -47.5032,31.48602 -76.01398,31.48602 l 0,-107.5 z" transform="matrix(1.1901163,0,0,1.1901163,1533.6444,863.95297)" style="fill:none;stroke:none"/><path id="path2816-9-4-9-98-7" d="m 483.57144,257.71933 c 0,28.51077 -11.32586,55.85382 -31.48602,76.01398 l -76.01398,-76.01398 z" transform="matrix(-1.1901163,0,0,1.1901163,2428.782,863.95296)" style="fill:none;stroke:none"/><path id="path2816-9-0-4-1-0-7" d="m 452.08542,333.73331 c -20.16016,20.16016 -47.5032,31.48602 -76.01398,31.48602 l 0,-107.5 z" transform="matrix(-1.1901163,0,0,1.1901163,2428.782,863.95296)" style="fill:#000;fill-opacity:1;stroke:#000;stroke-width:.84025401;stroke-linecap:round;stroke-linejoin:round;stroke-miterlimit:10;stroke-opacity:1;stroke-dasharray:none"/><path id="path2816-9-9-7-71-6" d="m 483.57144,257.71933 c 0,28.51077 -11.32586,55.85382 -31.48602,76.01398 l -76.01398,-76.01398 z" transform="matrix(1.1901163,0,0,-1.1901163,1533.6444,1477.3849)" style="fill:none;stroke:none"/><path id="path2816-9-0-3-8-53-4" d="m 452.08542,333.73331 c -20.16016,20.16016 -47.5032,31.48602 -76.01398,31.48602 l 0,-107.5 z" transform="matrix(1.1901163,0,0,-1.1901163,1533.6444,1477.3849)" style="fill:none;stroke:none"/><path id="path2816-9-4-1-0-9-3" d="m 483.57144,257.71933 c 0,28.51077 -11.32586,55.85382 -31.48602,76.01398 l -76.01398,-76.01398 z" transform="matrix(-1.1901163,0,0,-1.1901163,2428.782,1477.3849)" style="fill:none;stroke:none"/><path id="path2816-9-0-4-4-8-6-0" d="m 452.08542,333.73331 c -20.16016,20.16016 -47.5032,31.48602 -76.01398,31.48602 l 0,-107.5 z" transform="matrix(-1.1901163,0,0,-1.1901163,2428.782,1477.3849)" style="fill:none;stroke:none"/></g><g id="g4278" transform="translate(-733.02324,-1298.8497)"><path id="path2816-2-2-0" d="m 483.57144,257.71933 c 0,59.37061 -48.12939,107.5 -107.5,107.5 -59.37061,0 -107.5,-48.12939 -107.5,-107.5 0,-59.37061 48.12939,-107.5 107.5,-107.5 59.37061,0 107.5,48.12939 107.5,107.5 z" transform="matrix(1.1901163,0,0,1.1901163,1533.6444,1205.3846)" style="fill:none;stroke:none"/><path id="path2816-9-1-0-9" d="m 483.57144,257.71933 c 0,28.51077 -11.32586,55.85382 -31.48602,76.01398 l -76.01398,-76.01398 z" transform="matrix(1.1901163,0,0,1.1901163,1533.6444,1205.3846)" style="fill:none;stroke:none"/><path id="path2816-9-0-1-8-2" d="m 452.08542,333.73331 c -20.16016,20.16016 -47.5032,31.48602 -76.01398,31.48602 l 0,-107.5 z" transform="matrix(1.1901163,0,0,1.1901163,1533.6444,1205.3846)" style="fill:none;stroke:none"/><path id="path2816-9-4-9-2-5" d="m 483.57144,257.71933 c 0,28.51077 -11.32586,55.85382 -31.48602,76.01398 l -76.01398,-76.01398 z" transform="matrix(-1.1901163,0,0,1.1901163,2428.7819,1205.3846)" style="fill:#000;fill-opacity:1;stroke:#000;stroke-width:.84025401;stroke-linecap:round;stroke-linejoin:round;stroke-miterlimit:10;stroke-opacity:1;stroke-dasharray:none"/><path id="path2816-9-0-4-1-2-4" d="m 452.08542,333.73331 c -20.16016,20.16016 -47.5032,31.48602 -76.01398,31.48602 l 0,-107.5 z" transform="matrix(-1.1901163,0,0,1.1901163,2428.7819,1205.3846)" style="fill:none;stroke:none"/><path id="path2816-9-9-7-3-0" d="m 483.57144,257.71933 c 0,28.51077 -11.32586,55.85382 -31.48602,76.01398 l -76.01398,-76.01398 z" transform="matrix(1.1901163,0,0,-1.1901163,1533.6444,1818.8165)" style="fill:none;stroke:none"/><path id="path2816-9-0-3-8-1-5" d="m 452.08542,333.73331 c -20.16016,20.16016 -47.5032,31.48602 -76.01398,31.48602 l 0,-107.5 z" transform="matrix(1.1901163,0,0,-1.1901163,1533.6444,1818.8165)" style="fill:none;stroke:none"/><path id="path2816-9-4-1-0-12-9" d="m 483.57144,257.71933 c 0,28.51077 -11.32586,55.85382 -31.48602,76.01398 l -76.01398,-76.01398 z" transform="matrix(-1.1901163,0,0,-1.1901163,2428.7819,1818.8165)" style="fill:none;stroke:none"/><path id="path2816-9-0-4-4-8-5-4" d="m 452.08542,333.73331 c -20.16016,20.16016 -47.5032,31.48602 -76.01398,31.48602 l 0,-107.5 z" transform="matrix(-1.1901163,0,0,-1.1901163,2428.7819,1818.8165)" style="fill:none;stroke:none"/></g><g id="g4289" transform="translate(-726.96234,-1271.7199)"><path id="path2816-2-29-9" d="m 483.57144,257.71933 c 0,59.37061 -48.12939,107.5 -107.5,107.5 -59.37061,0 -107.5,-48.12939 -107.5,-107.5 0,-59.37061 48.12939,-107.5 107.5,-107.5 59.37061,0 107.5,48.12939 107.5,107.5 z" transform="matrix(1.1901163,0,0,1.1901163,1527.5835,1518.5319)" style="fill:none;stroke:none"/><path id="path2816-9-1-59-2" d="m 483.57144,257.71933 c 0,28.51077 -11.32586,55.85382 -31.48602,76.01398 l -76.01398,-76.01398 z" transform="matrix(1.1901163,0,0,1.1901163,1527.5835,1518.5319)" style="fill:none;stroke:none"/><path id="path2816-9-0-1-02-2" d="m 452.08542,333.73331 c -20.16016,20.16016 -47.5032,31.48602 -76.01398,31.48602 l 0,-107.5 z" transform="matrix(1.1901163,0,0,1.1901163,1527.5835,1518.5319)" style="fill:none;stroke:none"/><path id="path2816-9-4-9-3-4" d="m 483.57144,257.71933 c 0,28.51077 -11.32586,55.85382 -31.48602,76.01398 l -76.01398,-76.01398 z" transform="matrix(-1.1901163,0,0,1.1901163,2422.721,1518.5319)" style="fill:none;stroke:none"/><path id="path2816-9-0-4-1-20-7" d="m 452.08542,333.73331 c -20.16016,20.16016 -47.5032,31.48602 -76.01398,31.48602 l 0,-107.5 z" transform="matrix(-1.1901163,0,0,1.1901163,2422.721,1518.5319)" style="fill:none;stroke:none"/><path id="path2816-9-9-7-4-7" d="m 483.57144,257.71933 c 0,28.51077 -11.32586,55.85382 -31.48602,76.01398 l -76.01398,-76.01398 z" transform="matrix(1.1901163,0,0,-1.1901163,1527.5835,2131.9639)" style="fill:none;stroke:none"/><path id="path2816-9-0-3-8-50-5" d="m 452.08542,333.73331 c -20.16016,20.16016 -47.5032,31.48602 -76.01398,31.48602 l 0,-107.5 z" transform="matrix(1.1901163,0,0,-1.1901163,1527.5835,2131.9639)" style="fill:none;stroke:none"/><path id="path2816-9-4-1-0-7-4" d="m 483.57144,257.71933 c 0,28.51077 -11.32586,55.85382 -31.48602,76.01398 l -76.01398,-76.01398 z" transform="matrix(-1.1901163,0,0,-1.1901163,2422.721,2131.9639)" style="fill:#000;fill-opacity:1;stroke:#000;stroke-width:.84025401;stroke-linecap:round;stroke-linejoin:round;stroke-miterlimit:10;stroke-opacity:1;stroke-dasharray:none"/><path id="path2816-9-0-4-4-8-08-8" d="m 452.08542,333.73331 c -20.16016,20.16016 -47.5032,31.48602 -76.01398,31.48602 l 0,-107.5 z" transform="matrix(-1.1901163,0,0,-1.1901163,2422.721,2131.9639)" style="fill:none;stroke:none"/></g><g id="g4300" transform="translate(-759.53734,-1280.7055)"><path id="path2816-2-4-2" d="m 483.57144,257.71933 c 0,59.37061 -48.12939,107.5 -107.5,107.5 -59.37061,0 -107.5,-48.12939 -107.5,-107.5 0,-59.37061 48.12939,-107.5 107.5,-107.5 59.37061,0 107.5,48.12939 107.5,107.5 z" transform="matrix(1.1901163,0,0,1.1901163,1559.9085,1868.0446)" style="fill:none;stroke:none"/><path id="path2816-9-1-6-8" d="m 483.57144,257.71933 c 0,28.51077 -11.32586,55.85382 -31.48602,76.01398 l -76.01398,-76.01398 z" transform="matrix(1.1901163,0,0,1.1901163,1559.9085,1868.0446)" style="fill:none;stroke:none"/><path id="path2816-9-0-1-1-9" d="m 452.08542,333.73331 c -20.16016,20.16016 -47.5032,31.48602 -76.01398,31.48602 l 0,-107.5 z" transform="matrix(1.1901163,0,0,1.1901163,1559.9085,1868.0446)" style="fill:none;stroke:none"/><path id="path2816-9-4-9-820-3" d="m 483.57144,257.71933 c 0,28.51077 -11.32586,55.85382 -31.48602,76.01398 l -76.01398,-76.01398 z" transform="matrix(-1.1901163,0,0,1.1901163,2455.046,1868.0446)" style="fill:none;stroke:none"/><path id="path2816-9-0-4-1-56-6" d="m 452.08542,333.73331 c -20.16016,20.16016 -47.5032,31.48602 -76.01398,31.48602 l 0,-107.5 z" transform="matrix(-1.1901163,0,0,1.1901163,2455.046,1868.0446)" style="fill:none;stroke:none"/><path id="path2816-9-9-7-10-8" d="m 483.57144,257.71933 c 0,28.51077 -11.32586,55.85382 -31.48602,76.01398 l -76.01398,-76.01398 z" transform="matrix(1.1901163,0,0,-1.1901163,1559.9085,2481.4766)" style="fill:none;stroke:none"/><path id="path2816-9-0-3-8-4-0" d="m 452.08542,333.73331 c -20.16016,20.16016 -47.5032,31.48602 -76.01398,31.48602 l 0,-107.5 z" transform="matrix(1.1901163,0,0,-1.1901163,1559.9085,2481.4766)" style="fill:none;stroke:none"/><path id="path2816-9-4-1-0-4-2" d="m 483.57144,257.71933 c 0,28.51077 -11.32586,55.85382 -31.48602,76.01398 l -76.01398,-76.01398 z" transform="matrix(-1.1901163,0,0,-1.1901163,2455.046,2481.4766)" style="fill:none;stroke:none"/><path id="path2816-9-0-4-4-8-9-1" d="m 452.08542,333.73331 c -20.16016,20.16016 -47.5032,31.48602 -76.01398,31.48602 l 0,-107.5 z" transform="matrix(-1.1901163,0,0,-1.1901163,2455.046,2481.4766)" style="fill:#000;fill-opacity:1;stroke:#000;stroke-width:.84025401;stroke-linecap:round;stroke-linejoin:round;stroke-miterlimit:10;stroke-opacity:1;stroke-dasharray:none"/></g></g></svg>