<svg xmlns="http://www.w3.org/2000/svg" xmlns:svg="http://www.w3.org/2000/svg" id="svg2" width="11000" height="4000" version="1.0"><metadata id="metadata151"/><g id="layer1" transform="translate(4527.8567,1497.2102)"><g id="g2540" transform="matrix(0.7071068,0.7071068,-0.7071068,0.7071068,-2392.9517,-1322.9221)"><g id="g2542"><g id="g2544" transform="matrix(-1,0,0,-1,825,825)" style="fill:#000;fill-opacity:1"><path id="path2546" d="M 425,25 C 204.2,25 25,204.2 25,425 25,645.8 204.2,825 425,825 314.6,825 225,735.4 225,625 225,514.6 314.6,425 425,425 535.4,425 625,335.4 625,225 625,114.6 535.4,25 425,25 z m 0,137.5 c 34.5,0 62.5,28 62.5,62.5 0,34.5 -28,62.5 -62.5,62.5 -34.5,0 -62.5,-28 -62.5,-62.5 0,-34.5 28,-62.5 62.5,-62.5 z" transform="matrix(-1,0,0,-1,825,825)" style="fill:#000;fill-opacity:1;stroke:none"/><path id="path2548" d="m 450,200 a 50,50 0 1 1 -100,0 50,50 0 1 1 100,0 z" transform="matrix(1.25,0,0,1.25,-100,-50)" style="fill:#000;fill-opacity:1;stroke:none"/></g><g id="g2550"><path id="path2552" d="m 425,25 c 110.4,0 200,89.6 200,200 0,110.4 -89.6,200 -200,200 -110.4,0 -200,89.6 -200,200 0,110.4 89.6,200 200,200 C 645.8,825 825,645.8 825,425 825,204.2 645.8,25 425,25 z m 0,537.5 c 34.5,0 62.5,28 62.5,62.5 0,34.5 -28,62.5 -62.5,62.5 -34.5,0 -62.5,-28 -62.5,-62.5 0,-34.5 28,-62.5 62.5,-62.5 z" style="fill:#fff;fill-opacity:1;stroke:none"/><path id="path2554" d="m 450,200 a 50,50 0 1 1 -100,0 50,50 0 1 1 100,0 z" transform="matrix(1.25,0,0,-1.25,-75,475)" style="fill:#fff;fill-opacity:1;stroke:none"/></g></g></g><g id="g2556" transform="matrix(0,1,-1,0,-606.4814,-1146.8814)"><g id="g2558"><g id="g2560" transform="matrix(-1,0,0,-1,825,825)" style="fill:#000;fill-opacity:1"><path id="path2562" d="M 425,25 C 204.2,25 25,204.2 25,425 25,645.8 204.2,825 425,825 314.6,825 225,735.4 225,625 225,514.6 314.6,425 425,425 535.4,425 625,335.4 625,225 625,114.6 535.4,25 425,25 z m 0,137.5 c 34.5,0 62.5,28 62.5,62.5 0,34.5 -28,62.5 -62.5,62.5 -34.5,0 -62.5,-28 -62.5,-62.5 0,-34.5 28,-62.5 62.5,-62.5 z" transform="matrix(-1,0,0,-1,825,825)" style="fill:#000;fill-opacity:1;stroke:none"/><path id="path2564" d="m 450,200 a 50,50 0 1 1 -100,0 50,50 0 1 1 100,0 z" transform="matrix(1.25,0,0,1.25,-100,-50)" style="fill:#000;fill-opacity:1;stroke:none"/></g><g id="g2566"><path id="path2568" d="m 425,25 c 110.4,0 200,89.6 200,200 0,110.4 -89.6,200 -200,200 -110.4,0 -200,89.6 -200,200 0,110.4 89.6,200 200,200 C 645.8,825 825,645.8 825,425 825,204.2 645.8,25 425,25 z m 0,537.5 c 34.5,0 62.5,28 62.5,62.5 0,34.5 -28,62.5 -62.5,62.5 -34.5,0 -62.5,-28 -62.5,-62.5 0,-34.5 28,-62.5 62.5,-62.5 z" style="fill:#fff;fill-opacity:1;stroke:none"/><path id="path2570" d="m 450,200 a 50,50 0 1 1 -100,0 50,50 0 1 1 100,0 z" transform="matrix(1.25,0,0,-1.25,-75,475)" style="fill:#fff;fill-opacity:1;stroke:none"/></g></g></g><g id="g2572" transform="matrix(-0.7071068,0.7071068,-0.7071068,-0.7071068,931.02946,-721.88143)"><g id="g2574"><g id="g2576" transform="matrix(-1,0,0,-1,825,825)" style="fill:#000;fill-opacity:1"><path id="path2578" d="M 425,25 C 204.2,25 25,204.2 25,425 25,645.8 204.2,825 425,825 314.6,825 225,735.4 225,625 225,514.6 314.6,425 425,425 535.4,425 625,335.4 625,225 625,114.6 535.4,25 425,25 z m 0,137.5 c 34.5,0 62.5,28 62.5,62.5 0,34.5 -28,62.5 -62.5,62.5 -34.5,0 -62.5,-28 -62.5,-62.5 0,-34.5 28,-62.5 62.5,-62.5 z" transform="matrix(-1,0,0,-1,825,825)" style="fill:#000;fill-opacity:1;stroke:none"/><path id="path2580" d="m 450,200 a 50,50 0 1 1 -100,0 50,50 0 1 1 100,0 z" transform="matrix(1.25,0,0,1.25,-100,-50)" style="fill:#000;fill-opacity:1;stroke:none"/></g><g id="g2582"><path id="path2584" d="m 425,25 c 110.4,0 200,89.6 200,200 0,110.4 -89.6,200 -200,200 -110.4,0 -200,89.6 -200,200 0,110.4 89.6,200 200,200 C 645.8,825 825,645.8 825,425 825,204.2 645.8,25 425,25 z m 0,537.5 c 34.5,0 62.5,28 62.5,62.5 0,34.5 -28,62.5 -62.5,62.5 -34.5,0 -62.5,-28 -62.5,-62.5 0,-34.5 28,-62.5 62.5,-62.5 z" style="fill:#fff;fill-opacity:1;stroke:none"/><path id="path2586" d="m 450,200 a 50,50 0 1 1 -100,0 50,50 0 1 1 100,0 z" transform="matrix(1.25,0,0,-1.25,-75,475)" style="fill:#fff;fill-opacity:1;stroke:none"/></g></g></g><g id="g2604" transform="translate(-4179.4215,-1146.8814)"><g id="g2606"><g id="g2608" transform="matrix(-1,0,0,-1,825,825)" style="fill:#000;fill-opacity:1"><path id="path2610" d="M 425,25 C 204.2,25 25,204.2 25,425 25,645.8 204.2,825 425,825 314.6,825 225,735.4 225,625 225,514.6 314.6,425 425,425 535.4,425 625,335.4 625,225 625,114.6 535.4,25 425,25 z m 0,137.5 c 34.5,0 62.5,28 62.5,62.5 0,34.5 -28,62.5 -62.5,62.5 -34.5,0 -62.5,-28 -62.5,-62.5 0,-34.5 28,-62.5 62.5,-62.5 z" transform="matrix(-1,0,0,-1,825,825)" style="fill:#000;fill-opacity:1;stroke:none"/><path id="path2612" d="m 450,200 a 50,50 0 1 1 -100,0 50,50 0 1 1 100,0 z" transform="matrix(1.25,0,0,1.25,-100,-50)" style="fill:#000;fill-opacity:1;stroke:none"/></g><g id="g2614"><path id="path2616" d="m 425,25 c 110.4,0 200,89.6 200,200 0,110.4 -89.6,200 -200,200 -110.4,0 -200,89.6 -200,200 0,110.4 89.6,200 200,200 C 645.8,825 825,645.8 825,425 825,204.2 645.8,25 425,25 z m 0,537.5 c 34.5,0 62.5,28 62.5,62.5 0,34.5 -28,62.5 -62.5,62.5 -34.5,0 -62.5,-28 -62.5,-62.5 0,-34.5 28,-62.5 62.5,-62.5 z" style="fill:#fff;fill-opacity:1;stroke:none"/><path id="path2618" d="m 450,200 a 50,50 0 1 1 -100,0 50,50 0 1 1 100,0 z" transform="matrix(1.25,0,0,-1.25,-75,475)" style="fill:#fff;fill-opacity:1;stroke:none"/></g></g></g><g id="g2732" transform="translate(1266.4587,-1146.8814)"><g id="g2734" transform="matrix(-1,0,0,-1,850,850)"><g id="g2736" transform="matrix(-1,0,0,-1,825,825)" style="fill:#000;fill-opacity:1"><path id="path2738" d="M 425,25 C 204.2,25 25,204.2 25,425 25,645.8 204.2,825 425,825 314.6,825 225,735.4 225,625 225,514.6 314.6,425 425,425 535.4,425 625,335.4 625,225 625,114.6 535.4,25 425,25 z m 0,137.5 c 34.5,0 62.5,28 62.5,62.5 0,34.5 -28,62.5 -62.5,62.5 -34.5,0 -62.5,-28 -62.5,-62.5 0,-34.5 28,-62.5 62.5,-62.5 z" transform="matrix(-1,0,0,-1,825,825)" style="fill:#000;fill-opacity:1;stroke:none"/><path id="path2740" d="m 450,200 a 50,50 0 1 1 -100,0 50,50 0 1 1 100,0 z" transform="matrix(1.25,0,0,1.25,-100,-50)" style="fill:#000;fill-opacity:1;stroke:none"/></g><g id="g2742"><path id="path2744" d="m 425,25 c 110.4,0 200,89.6 200,200 0,110.4 -89.6,200 -200,200 -110.4,0 -200,89.6 -200,200 0,110.4 89.6,200 200,200 C 645.8,825 825,645.8 825,425 825,204.2 645.8,25 425,25 z m 0,537.5 c 34.5,0 62.5,28 62.5,62.5 0,34.5 -28,62.5 -62.5,62.5 -34.5,0 -62.5,-28 -62.5,-62.5 0,-34.5 28,-62.5 62.5,-62.5 z" style="fill:#fff;fill-opacity:1;stroke:none"/><path id="path2746" d="m 450,200 a 50,50 0 1 1 -100,0 50,50 0 1 1 100,0 z" transform="matrix(1.25,0,0,-1.25,-75,475)" style="fill:#fff;fill-opacity:1;stroke:none"/></g></g></g><g id="g2780" transform="matrix(0.7071068,0.7071068,-0.7071068,0.7071068,3052.9291,-1322.9222)"><g id="g2782" transform="matrix(-1,0,0,-1,850,850)"><g id="g2784" transform="matrix(-1,0,0,-1,825,825)" style="fill:#000;fill-opacity:1"><path id="path2786" d="M 425,25 C 204.2,25 25,204.2 25,425 25,645.8 204.2,825 425,825 314.6,825 225,735.4 225,625 225,514.6 314.6,425 425,425 535.4,425 625,335.4 625,225 625,114.6 535.4,25 425,25 z m 0,137.5 c 34.5,0 62.5,28 62.5,62.5 0,34.5 -28,62.5 -62.5,62.5 -34.5,0 -62.5,-28 -62.5,-62.5 0,-34.5 28,-62.5 62.5,-62.5 z" transform="matrix(-1,0,0,-1,825,825)" style="fill:#000;fill-opacity:1;stroke:none"/><path id="path2788" d="m 450,200 a 50,50 0 1 1 -100,0 50,50 0 1 1 100,0 z" transform="matrix(1.25,0,0,1.25,-100,-50)" style="fill:#000;fill-opacity:1;stroke:none"/></g><g id="g2790"><path id="path2792" d="m 425,25 c 110.4,0 200,89.6 200,200 0,110.4 -89.6,200 -200,200 -110.4,0 -200,89.6 -200,200 0,110.4 89.6,200 200,200 C 645.8,825 825,645.8 825,425 825,204.2 645.8,25 425,25 z m 0,537.5 c 34.5,0 62.5,28 62.5,62.5 0,34.5 -28,62.5 -62.5,62.5 -34.5,0 -62.5,-28 -62.5,-62.5 0,-34.5 28,-62.5 62.5,-62.5 z" style="fill:#fff;fill-opacity:1;stroke:none"/><path id="path2794" d="m 450,200 a 50,50 0 1 1 -100,0 50,50 0 1 1 100,0 z" transform="matrix(1.25,0,0,-1.25,-75,475)" style="fill:#fff;fill-opacity:1;stroke:none"/></g></g></g><g id="g2828" transform="matrix(0,1,-1,0,4839.3991,-1146.8814)"><g id="g2830" transform="matrix(-1,0,0,-1,850,850)"><g id="g2832" transform="matrix(-1,0,0,-1,825,825)" style="fill:#000;fill-opacity:1"><path id="path2834" d="M 425,25 C 204.2,25 25,204.2 25,425 25,645.8 204.2,825 425,825 314.6,825 225,735.4 225,625 225,514.6 314.6,425 425,425 535.4,425 625,335.4 625,225 625,114.6 535.4,25 425,25 z m 0,137.5 c 34.5,0 62.5,28 62.5,62.5 0,34.5 -28,62.5 -62.5,62.5 -34.5,0 -62.5,-28 -62.5,-62.5 0,-34.5 28,-62.5 62.5,-62.5 z" transform="matrix(-1,0,0,-1,825,825)" style="fill:#000;fill-opacity:1;stroke:none"/><path id="path2836" d="m 450,200 a 50,50 0 1 1 -100,0 50,50 0 1 1 100,0 z" transform="matrix(1.25,0,0,1.25,-100,-50)" style="fill:#000;fill-opacity:1;stroke:none"/></g><g id="g2838"><path id="path2840" d="m 425,25 c 110.4,0 200,89.6 200,200 0,110.4 -89.6,200 -200,200 -110.4,0 -200,89.6 -200,200 0,110.4 89.6,200 200,200 C 645.8,825 825,645.8 825,425 825,204.2 645.8,25 425,25 z m 0,537.5 c 34.5,0 62.5,28 62.5,62.5 0,34.5 -28,62.5 -62.5,62.5 -34.5,0 -62.5,-28 -62.5,-62.5 0,-34.5 28,-62.5 62.5,-62.5 z" style="fill:#fff;fill-opacity:1;stroke:none"/><path id="path2842" d="m 450,200 a 50,50 0 1 1 -100,0 50,50 0 1 1 100,0 z" transform="matrix(1.25,0,0,-1.25,-75,475)" style="fill:#fff;fill-opacity:1;stroke:none"/></g></g></g><g id="g2876" transform="matrix(-0.7071068,0.7071068,-0.7071068,-0.7071068,6376.9094,-721.8814)"><g id="g2878" transform="matrix(-1,0,0,-1,850,850)"><g id="g2880" transform="matrix(-1,0,0,-1,825,825)" style="fill:#000;fill-opacity:1"><path id="path2882" d="M 425,25 C 204.2,25 25,204.2 25,425 25,645.8 204.2,825 425,825 314.6,825 225,735.4 225,625 225,514.6 314.6,425 425,425 535.4,425 625,335.4 625,225 625,114.6 535.4,25 425,25 z m 0,137.5 c 34.5,0 62.5,28 62.5,62.5 0,34.5 -28,62.5 -62.5,62.5 -34.5,0 -62.5,-28 -62.5,-62.5 0,-34.5 28,-62.5 62.5,-62.5 z" transform="matrix(-1,0,0,-1,825,825)" style="fill:#000;fill-opacity:1;stroke:none"/><path id="path2884" d="m 450,200 a 50,50 0 1 1 -100,0 50,50 0 1 1 100,0 z" transform="matrix(1.25,0,0,1.25,-100,-50)" style="fill:#000;fill-opacity:1;stroke:none"/></g><g id="g2886"><path id="path2888" d="m 425,25 c 110.4,0 200,89.6 200,200 0,110.4 -89.6,200 -200,200 -110.4,0 -200,89.6 -200,200 0,110.4 89.6,200 200,200 C 645.8,825 825,645.8 825,425 825,204.2 645.8,25 425,25 z m 0,537.5 c 34.5,0 62.5,28 62.5,62.5 0,34.5 -28,62.5 -62.5,62.5 -34.5,0 -62.5,-28 -62.5,-62.5 0,-34.5 28,-62.5 62.5,-62.5 z" style="fill:#fff;fill-opacity:1;stroke:none"/><path id="path2890" d="m 450,200 a 50,50 0 1 1 -100,0 50,50 0 1 1 100,0 z" transform="matrix(1.25,0,0,-1.25,-75,475)" style="fill:#fff;fill-opacity:1;stroke:none"/></g></g></g><g id="g2620" transform="translate(-4179.4215,93.227713)"><g id="g2622"><g id="g2624" transform="matrix(-1,0,0,-1,825,825)" style="fill:#000;fill-opacity:1"><path id="path2626" d="M 425,25 C 204.2,25 25,204.2 25,425 25,645.8 204.2,825 425,825 314.6,825 225,735.4 225,625 225,514.6 314.6,425 425,425 535.4,425 625,335.4 625,225 625,114.6 535.4,25 425,25 z m 0,137.5 c 34.5,0 62.5,28 62.5,62.5 0,34.5 -28,62.5 -62.5,62.5 -34.5,0 -62.5,-28 -62.5,-62.5 0,-34.5 28,-62.5 62.5,-62.5 z" transform="matrix(-1,0,0,-1,825,825)" style="fill:#000;fill-opacity:1;stroke:none"/><path id="path2628" d="m 450,200 a 50,50 0 1 1 -100,0 50,50 0 1 1 100,0 z" transform="matrix(1.25,0,0,1.25,-100,-50)" style="fill:#000;fill-opacity:1;stroke:none"/></g><g id="g2630"><path id="path2632" d="m 425,25 c 110.4,0 200,89.6 200,200 0,110.4 -89.6,200 -200,200 -110.4,0 -200,89.6 -200,200 0,110.4 89.6,200 200,200 C 645.8,825 825,645.8 825,425 825,204.2 645.8,25 425,25 z m 0,537.5 c 34.5,0 62.5,28 62.5,62.5 0,34.5 -28,62.5 -62.5,62.5 -34.5,0 -62.5,-28 -62.5,-62.5 0,-34.5 28,-62.5 62.5,-62.5 z" style="fill:#fff;fill-opacity:1;stroke:none"/><path id="path2634" d="m 450,200 a 50,50 0 1 1 -100,0 50,50 0 1 1 100,0 z" transform="matrix(1.25,0,0,-1.25,-75,475)" style="fill:#fff;fill-opacity:1;stroke:none"/></g></g></g><g id="g2636" transform="matrix(0.5,0.8660254,-0.8660254,0.5,-1793.3611,-62.333082)"><g id="g2638"><g id="g2640" transform="matrix(-1,0,0,-1,825,825)" style="fill:#000;fill-opacity:1"><path id="path2642" d="M 425,25 C 204.2,25 25,204.2 25,425 25,645.8 204.2,825 425,825 314.6,825 225,735.4 225,625 225,514.6 314.6,425 425,425 535.4,425 625,335.4 625,225 625,114.6 535.4,25 425,25 z m 0,137.5 c 34.5,0 62.5,28 62.5,62.5 0,34.5 -28,62.5 -62.5,62.5 -34.5,0 -62.5,-28 -62.5,-62.5 0,-34.5 28,-62.5 62.5,-62.5 z" transform="matrix(-1,0,0,-1,825,825)" style="fill:#000;fill-opacity:1;stroke:none"/><path id="path2644" d="m 450,200 a 50,50 0 1 1 -100,0 50,50 0 1 1 100,0 z" transform="matrix(1.25,0,0,1.25,-100,-50)" style="fill:#000;fill-opacity:1;stroke:none"/></g><g id="g2646"><path id="path2648" d="m 425,25 c 110.4,0 200,89.6 200,200 0,110.4 -89.6,200 -200,200 -110.4,0 -200,89.6 -200,200 0,110.4 89.6,200 200,200 C 645.8,825 825,645.8 825,425 825,204.2 645.8,25 425,25 z m 0,537.5 c 34.5,0 62.5,28 62.5,62.5 0,34.5 -28,62.5 -62.5,62.5 -34.5,0 -62.5,-28 -62.5,-62.5 0,-34.5 28,-62.5 62.5,-62.5 z" style="fill:#fff;fill-opacity:1;stroke:none"/><path id="path2650" d="m 450,200 a 50,50 0 1 1 -100,0 50,50 0 1 1 100,0 z" transform="matrix(1.25,0,0,-1.25,-75,475)" style="fill:#fff;fill-opacity:1;stroke:none"/></g></g></g><g id="g2652" transform="matrix(-0.5,0.8660254,-0.8660254,-0.5,437.13852,362.66692)"><g id="g2654"><g id="g2656" transform="matrix(-1,0,0,-1,825,825)" style="fill:#000;fill-opacity:1"><path id="path2658" d="M 425,25 C 204.2,25 25,204.2 25,425 25,645.8 204.2,825 425,825 314.6,825 225,735.4 225,625 225,514.6 314.6,425 425,425 535.4,425 625,335.4 625,225 625,114.6 535.4,25 425,25 z m 0,137.5 c 34.5,0 62.5,28 62.5,62.5 0,34.5 -28,62.5 -62.5,62.5 -34.5,0 -62.5,-28 -62.5,-62.5 0,-34.5 28,-62.5 62.5,-62.5 z" transform="matrix(-1,0,0,-1,825,825)" style="fill:#000;fill-opacity:1;stroke:none"/><path id="path2660" d="m 450,200 a 50,50 0 1 1 -100,0 50,50 0 1 1 100,0 z" transform="matrix(1.25,0,0,1.25,-100,-50)" style="fill:#000;fill-opacity:1;stroke:none"/></g><g id="g2662"><path id="path2664" d="m 425,25 c 110.4,0 200,89.6 200,200 0,110.4 -89.6,200 -200,200 -110.4,0 -200,89.6 -200,200 0,110.4 89.6,200 200,200 C 645.8,825 825,645.8 825,425 825,204.2 645.8,25 425,25 z m 0,537.5 c 34.5,0 62.5,28 62.5,62.5 0,34.5 -28,62.5 -62.5,62.5 -34.5,0 -62.5,-28 -62.5,-62.5 0,-34.5 28,-62.5 62.5,-62.5 z" style="fill:#fff;fill-opacity:1;stroke:none"/><path id="path2666" d="m 450,200 a 50,50 0 1 1 -100,0 50,50 0 1 1 100,0 z" transform="matrix(1.25,0,0,-1.25,-75,475)" style="fill:#fff;fill-opacity:1;stroke:none"/></g></g></g><g id="g2748" transform="translate(1237.0774,93.227713)"><g id="g2750" transform="matrix(-1,0,0,-1,850,850)"><g id="g2752" transform="matrix(-1,0,0,-1,825,825)" style="fill:#000;fill-opacity:1"><path id="path2754" d="M 425,25 C 204.2,25 25,204.2 25,425 25,645.8 204.2,825 425,825 314.6,825 225,735.4 225,625 225,514.6 314.6,425 425,425 535.4,425 625,335.4 625,225 625,114.6 535.4,25 425,25 z m 0,137.5 c 34.5,0 62.5,28 62.5,62.5 0,34.5 -28,62.5 -62.5,62.5 -34.5,0 -62.5,-28 -62.5,-62.5 0,-34.5 28,-62.5 62.5,-62.5 z" transform="matrix(-1,0,0,-1,825,825)" style="fill:#000;fill-opacity:1;stroke:none"/><path id="path2756" d="m 450,200 a 50,50 0 1 1 -100,0 50,50 0 1 1 100,0 z" transform="matrix(1.25,0,0,1.25,-100,-50)" style="fill:#000;fill-opacity:1;stroke:none"/></g><g id="g2758"><path id="path2760" d="m 425,25 c 110.4,0 200,89.6 200,200 0,110.4 -89.6,200 -200,200 -110.4,0 -200,89.6 -200,200 0,110.4 89.6,200 200,200 C 645.8,825 825,645.8 825,425 825,204.2 645.8,25 425,25 z m 0,537.5 c 34.5,0 62.5,28 62.5,62.5 0,34.5 -28,62.5 -62.5,62.5 -34.5,0 -62.5,-28 -62.5,-62.5 0,-34.5 28,-62.5 62.5,-62.5 z" style="fill:#fff;fill-opacity:1;stroke:none"/><path id="path2762" d="m 450,200 a 50,50 0 1 1 -100,0 50,50 0 1 1 100,0 z" transform="matrix(1.25,0,0,-1.25,-75,475)" style="fill:#fff;fill-opacity:1;stroke:none"/></g></g></g><g id="g2844" transform="matrix(0.5,0.8660254,-0.8660254,0.5,3623.1377,-62.333082)"><g id="g2846" transform="matrix(-1,0,0,-1,850,850)"><g id="g2848" transform="matrix(-1,0,0,-1,825,825)" style="fill:#000;fill-opacity:1"><path id="path2850" d="M 425,25 C 204.2,25 25,204.2 25,425 25,645.8 204.2,825 425,825 314.6,825 225,735.4 225,625 225,514.6 314.6,425 425,425 535.4,425 625,335.4 625,225 625,114.6 535.4,25 425,25 z m 0,137.5 c 34.5,0 62.5,28 62.5,62.5 0,34.5 -28,62.5 -62.5,62.5 -34.5,0 -62.5,-28 -62.5,-62.5 0,-34.5 28,-62.5 62.5,-62.5 z" transform="matrix(-1,0,0,-1,825,825)" style="fill:#000;fill-opacity:1;stroke:none"/><path id="path2852" d="m 450,200 a 50,50 0 1 1 -100,0 50,50 0 1 1 100,0 z" transform="matrix(1.25,0,0,1.25,-100,-50)" style="fill:#000;fill-opacity:1;stroke:none"/></g><g id="g2854"><path id="path2856" d="m 425,25 c 110.4,0 200,89.6 200,200 0,110.4 -89.6,200 -200,200 -110.4,0 -200,89.6 -200,200 0,110.4 89.6,200 200,200 C 645.8,825 825,645.8 825,425 825,204.2 645.8,25 425,25 z m 0,537.5 c 34.5,0 62.5,28 62.5,62.5 0,34.5 -28,62.5 -62.5,62.5 -34.5,0 -62.5,-28 -62.5,-62.5 0,-34.5 28,-62.5 62.5,-62.5 z" style="fill:#fff;fill-opacity:1;stroke:none"/><path id="path2858" d="m 450,200 a 50,50 0 1 1 -100,0 50,50 0 1 1 100,0 z" transform="matrix(1.25,0,0,-1.25,-75,475)" style="fill:#fff;fill-opacity:1;stroke:none"/></g></g></g><g id="g2892" transform="matrix(-0.5,0.8660254,-0.8660254,-0.5,5853.6375,362.66692)"><g id="g2894" transform="matrix(-1,0,0,-1,850,850)"><g id="g2896" transform="matrix(-1,0,0,-1,825,825)" style="fill:#000;fill-opacity:1"><path id="path2898" d="M 425,25 C 204.2,25 25,204.2 25,425 25,645.8 204.2,825 425,825 314.6,825 225,735.4 225,625 225,514.6 314.6,425 425,425 535.4,425 625,335.4 625,225 625,114.6 535.4,25 425,25 z m 0,137.5 c 34.5,0 62.5,28 62.5,62.5 0,34.5 -28,62.5 -62.5,62.5 -34.5,0 -62.5,-28 -62.5,-62.5 0,-34.5 28,-62.5 62.5,-62.5 z" transform="matrix(-1,0,0,-1,825,825)" style="fill:#000;fill-opacity:1;stroke:none"/><path id="path2900" d="m 450,200 a 50,50 0 1 1 -100,0 50,50 0 1 1 100,0 z" transform="matrix(1.25,0,0,1.25,-100,-50)" style="fill:#000;fill-opacity:1;stroke:none"/></g><g id="g2902"><path id="path2904" d="m 425,25 c 110.4,0 200,89.6 200,200 0,110.4 -89.6,200 -200,200 -110.4,0 -200,89.6 -200,200 0,110.4 89.6,200 200,200 C 645.8,825 825,645.8 825,425 825,204.2 645.8,25 425,25 z m 0,537.5 c 34.5,0 62.5,28 62.5,62.5 0,34.5 -28,62.5 -62.5,62.5 -34.5,0 -62.5,-28 -62.5,-62.5 0,-34.5 28,-62.5 62.5,-62.5 z" style="fill:#fff;fill-opacity:1;stroke:none"/><path id="path2906" d="m 450,200 a 50,50 0 1 1 -100,0 50,50 0 1 1 100,0 z" transform="matrix(1.25,0,0,-1.25,-75,475)" style="fill:#fff;fill-opacity:1;stroke:none"/></g></g></g><g id="g2684" transform="translate(-4179.4215,1168.8407)"><g id="g2686"><g id="g2688" transform="matrix(-1,0,0,-1,825,825)" style="fill:#000;fill-opacity:1"><path id="path2690" d="M 425,25 C 204.2,25 25,204.2 25,425 25,645.8 204.2,825 425,825 314.6,825 225,735.4 225,625 225,514.6 314.6,425 425,425 535.4,425 625,335.4 625,225 625,114.6 535.4,25 425,25 z m 0,137.5 c 34.5,0 62.5,28 62.5,62.5 0,34.5 -28,62.5 -62.5,62.5 -34.5,0 -62.5,-28 -62.5,-62.5 0,-34.5 28,-62.5 62.5,-62.5 z" transform="matrix(-1,0,0,-1,825,825)" style="fill:#000;fill-opacity:1;stroke:none"/><path id="path2692" d="m 450,200 a 50,50 0 1 1 -100,0 50,50 0 1 1 100,0 z" transform="matrix(1.25,0,0,1.25,-100,-50)" style="fill:#000;fill-opacity:1;stroke:none"/></g><g id="g2694"><path id="path2696" d="m 425,25 c 110.4,0 200,89.6 200,200 0,110.4 -89.6,200 -200,200 -110.4,0 -200,89.6 -200,200 0,110.4 89.6,200 200,200 C 645.8,825 825,645.8 825,425 825,204.2 645.8,25 425,25 z m 0,537.5 c 34.5,0 62.5,28 62.5,62.5 0,34.5 -28,62.5 -62.5,62.5 -34.5,0 -62.5,-28 -62.5,-62.5 0,-34.5 28,-62.5 62.5,-62.5 z" style="fill:#fff;fill-opacity:1;stroke:none"/><path id="path2698" d="m 450,200 a 50,50 0 1 1 -100,0 50,50 0 1 1 100,0 z" transform="matrix(1.25,0,0,-1.25,-75,475)" style="fill:#fff;fill-opacity:1;stroke:none"/></g></g></g><g id="g2700" transform="matrix(0,1,-1,0,-551.46899,1168.8407)"><g id="g2702"><g id="g2704" transform="matrix(-1,0,0,-1,825,825)" style="fill:#000;fill-opacity:1"><path id="path2706" d="M 425,25 C 204.2,25 25,204.2 25,425 25,645.8 204.2,825 425,825 314.6,825 225,735.4 225,625 225,514.6 314.6,425 425,425 535.4,425 625,335.4 625,225 625,114.6 535.4,25 425,25 z m 0,137.5 c 34.5,0 62.5,28 62.5,62.5 0,34.5 -28,62.5 -62.5,62.5 -34.5,0 -62.5,-28 -62.5,-62.5 0,-34.5 28,-62.5 62.5,-62.5 z" transform="matrix(-1,0,0,-1,825,825)" style="fill:#000;fill-opacity:1;stroke:none"/><path id="path2708" d="m 450,200 a 50,50 0 1 1 -100,0 50,50 0 1 1 100,0 z" transform="matrix(1.25,0,0,1.25,-100,-50)" style="fill:#000;fill-opacity:1;stroke:none"/></g><g id="g2710"><path id="path2712" d="m 425,25 c 110.4,0 200,89.6 200,200 0,110.4 -89.6,200 -200,200 -110.4,0 -200,89.6 -200,200 0,110.4 89.6,200 200,200 C 645.8,825 825,645.8 825,425 825,204.2 645.8,25 425,25 z m 0,537.5 c 34.5,0 62.5,28 62.5,62.5 0,34.5 -28,62.5 -62.5,62.5 -34.5,0 -62.5,-28 -62.5,-62.5 0,-34.5 28,-62.5 62.5,-62.5 z" style="fill:#fff;fill-opacity:1;stroke:none"/><path id="path2714" d="m 450,200 a 50,50 0 1 1 -100,0 50,50 0 1 1 100,0 z" transform="matrix(1.25,0,0,-1.25,-75,475)" style="fill:#fff;fill-opacity:1;stroke:none"/></g></g></g><g id="g2764" transform="translate(1376.4834,1168.8407)"><g id="g2766" transform="matrix(-1,0,0,-1,850,850)"><g id="g2768" transform="matrix(-1,0,0,-1,825,825)" style="fill:#000;fill-opacity:1"><path id="path2770" d="M 425,25 C 204.2,25 25,204.2 25,425 25,645.8 204.2,825 425,825 314.6,825 225,735.4 225,625 225,514.6 314.6,425 425,425 535.4,425 625,335.4 625,225 625,114.6 535.4,25 425,25 z m 0,137.5 c 34.5,0 62.5,28 62.5,62.5 0,34.5 -28,62.5 -62.5,62.5 -34.5,0 -62.5,-28 -62.5,-62.5 0,-34.5 28,-62.5 62.5,-62.5 z" transform="matrix(-1,0,0,-1,825,825)" style="fill:#000;fill-opacity:1;stroke:none"/><path id="path2772" d="m 450,200 a 50,50 0 1 1 -100,0 50,50 0 1 1 100,0 z" transform="matrix(1.25,0,0,1.25,-100,-50)" style="fill:#000;fill-opacity:1;stroke:none"/></g><g id="g2774"><path id="path2776" d="m 425,25 c 110.4,0 200,89.6 200,200 0,110.4 -89.6,200 -200,200 -110.4,0 -200,89.6 -200,200 0,110.4 89.6,200 200,200 C 645.8,825 825,645.8 825,425 825,204.2 645.8,25 425,25 z m 0,537.5 c 34.5,0 62.5,28 62.5,62.5 0,34.5 -28,62.5 -62.5,62.5 -34.5,0 -62.5,-28 -62.5,-62.5 0,-34.5 28,-62.5 62.5,-62.5 z" style="fill:#fff;fill-opacity:1;stroke:none"/><path id="path2778" d="m 450,200 a 50,50 0 1 1 -100,0 50,50 0 1 1 100,0 z" transform="matrix(1.25,0,0,-1.25,-75,475)" style="fill:#fff;fill-opacity:1;stroke:none"/></g></g></g><g id="g2908" transform="matrix(0,1,-1,0,5004.4357,1168.8407)"><g id="g2910" transform="matrix(-1,0,0,-1,850,850)"><g id="g2912" transform="matrix(-1,0,0,-1,825,825)" style="fill:#000;fill-opacity:1"><path id="path2914" d="M 425,25 C 204.2,25 25,204.2 25,425 25,645.8 204.2,825 425,825 314.6,825 225,735.4 225,625 225,514.6 314.6,425 425,425 535.4,425 625,335.4 625,225 625,114.6 535.4,25 425,25 z m 0,137.5 c 34.5,0 62.5,28 62.5,62.5 0,34.5 -28,62.5 -62.5,62.5 -34.5,0 -62.5,-28 -62.5,-62.5 0,-34.5 28,-62.5 62.5,-62.5 z" transform="matrix(-1,0,0,-1,825,825)" style="fill:#000;fill-opacity:1;stroke:none"/><path id="path2916" d="m 450,200 a 50,50 0 1 1 -100,0 50,50 0 1 1 100,0 z" transform="matrix(1.25,0,0,1.25,-100,-50)" style="fill:#000;fill-opacity:1;stroke:none"/></g><g id="g2918"><path id="path2920" d="m 425,25 c 110.4,0 200,89.6 200,200 0,110.4 -89.6,200 -200,200 -110.4,0 -200,89.6 -200,200 0,110.4 89.6,200 200,200 C 645.8,825 825,645.8 825,425 825,204.2 645.8,25 425,25 z m 0,537.5 c 34.5,0 62.5,28 62.5,62.5 0,34.5 -28,62.5 -62.5,62.5 -34.5,0 -62.5,-28 -62.5,-62.5 0,-34.5 28,-62.5 62.5,-62.5 z" style="fill:#fff;fill-opacity:1;stroke:none"/><path id="path2922" d="m 450,200 a 50,50 0 1 1 -100,0 50,50 0 1 1 100,0 z" transform="matrix(1.25,0,0,-1.25,-75,475)" style="fill:#fff;fill-opacity:1;stroke:none"/></g></g></g></g></svg>